<svg width="151" height="150" viewBox="0 0 151 150" fill="none" xmlns="http://www.w3.org/2000/svg">
<circle cx="75.934" cy="75" r="73.5" transform="rotate(135 75.934 75)" fill="#847FB8" fill-opacity="0.3" stroke="#847FB8" stroke-width="3"/>
<rect x="40" y="66" width="12" height="16" rx="6" fill="#847FB8"/>
<rect x="25" y="53" width="12" height="43" rx="6" fill="#847FB8"/>
<rect x="70" y="27" width="12" height="94" rx="6" fill="#847FB8"/>
<path d="M85 56C85 52.6863 87.6863 50 91 50V50C94.3137 50 97 52.6863 97 56V92C97 95.3137 94.3137 98 91 98V98C87.6863 98 85 95.3137 85 92V56Z" fill="#847FB8"/>
<rect x="100" y="61" width="12" height="26" rx="6" fill="#847FB8"/>
<rect x="115" y="46" width="12" height="57" rx="6" fill="#847FB8"/>
<rect x="55" y="44" width="12" height="60" rx="6" fill="#847FB8"/>
</svg>
