<svg width="150" height="150" viewBox="0 0 150 150" fill="none" xmlns="http://www.w3.org/2000/svg">
<circle cx="75" cy="75" r="73.5" fill="#A5B7FF" fill-opacity="0.85" stroke="#2B50E7" stroke-width="3"/>
<path d="M90.9099 58.9099C94.0566 55.7632 98.0657 53.6203 102.43 52.7521C106.795 51.8839 111.319 52.3295 115.43 54.0325C119.542 55.7355 123.056 58.6193 125.528 62.3195C128 66.0196 129.32 70.3697 129.32 74.8198C129.32 79.2699 128 83.62 125.528 87.3201C123.056 91.0202 119.542 93.9041 115.43 95.6071C111.319 97.31 106.795 97.7556 102.43 96.8875C98.0657 96.0193 94.0566 93.8764 90.9099 90.7297" stroke="#2B50E7" stroke-width="10" stroke-linecap="round"/>
<path d="M58.7297 90.7297C55.583 93.8764 51.5739 96.0193 47.2093 96.8875C42.8448 97.7556 38.3208 97.3101 34.2094 95.6071C30.0981 93.9041 26.5841 91.0202 24.1117 87.3201C21.6394 83.62 20.3198 79.2699 20.3198 74.8198C20.3198 70.3697 21.6394 66.0196 24.1117 62.3195C26.5841 58.6194 30.0981 55.7355 34.2094 54.0325C38.3208 52.3295 42.8448 51.884 47.2093 52.7521C51.5739 53.6203 55.583 55.7632 58.7297 58.9099" stroke="#2B50E7" stroke-width="10" stroke-linecap="round"/>
<rect x="48" y="80" width="10" height="55" rx="5" transform="rotate(-90 48 80)" fill="#2B50E7"/>
</svg>
