<svg width="154" height="150" viewBox="0 0 154 150" fill="none" xmlns="http://www.w3.org/2000/svg">
<circle cx="77" cy="75" r="73.5" fill="#A5B7FF" fill-opacity="0.85" stroke="#2B50E7" stroke-width="3"/>
<path d="M16.9892 62.92C18.3692 62.92 19.5992 63.1 20.6792 63.46C21.7592 63.8 22.6592 64.3 23.3792 64.96C24.1192 65.6 24.6792 66.38 25.0592 67.3C25.4392 68.2 25.6292 69.22 25.6292 70.36C25.6292 71.26 25.4892 72.16 25.2092 73.06C24.9492 73.96 24.5092 74.78 23.8892 75.52C23.2892 76.26 22.4892 76.86 21.4892 77.32C20.4892 77.76 19.2492 77.98 17.7692 77.98H14.6492V85H10.2992V62.92H16.9892ZM17.7392 73.78C18.3992 73.78 18.9492 73.67 19.3892 73.45C19.8292 73.23 20.1692 72.95 20.4092 72.61C20.6692 72.27 20.8492 71.92 20.9492 71.56C21.0692 71.18 21.1292 70.83 21.1292 70.51C21.1292 70.27 21.0892 69.97 21.0092 69.61C20.9492 69.23 20.8092 68.85 20.5892 68.47C20.3692 68.09 20.0292 67.77 19.5692 67.51C19.1292 67.25 18.5292 67.12 17.7692 67.12H14.6492V73.78H17.7392ZM21.8192 76.48L27.2792 85H22.2092L16.6292 76.6L21.8192 76.48ZM30.8656 62.92H45.9256V67.12H35.2156V71.83H44.6956V76.03H35.2156V80.8H46.3456V85H30.8656V62.92ZM57.5361 62.92C59.3561 62.92 60.8961 63.23 62.1561 63.85C63.4161 64.45 64.3761 65.31 65.0361 66.43C65.6961 67.53 66.0261 68.84 66.0261 70.36C66.0261 71.26 65.8861 72.17 65.6061 73.09C65.3461 73.99 64.9161 74.81 64.3161 75.55C63.7361 76.29 62.9461 76.89 61.9461 77.35C60.9661 77.79 59.7561 78.01 58.3161 78.01H55.1961V85H50.8461V62.92H57.5361ZM58.2861 73.78C58.9461 73.78 59.4961 73.67 59.9361 73.45C60.3761 73.21 60.7161 72.92 60.9561 72.58C61.2161 72.22 61.3961 71.85 61.4961 71.47C61.6161 71.09 61.6761 70.76 61.6761 70.48C61.6761 70.26 61.6361 69.97 61.5561 69.61C61.4961 69.23 61.3561 68.85 61.1361 68.47C60.9161 68.09 60.5761 67.77 60.1161 67.51C59.6761 67.25 59.0761 67.12 58.3161 67.12H55.1961V73.78H58.2861ZM69.9184 62.92H74.2684V80.8H84.6484V85H69.9184V62.92ZM86.6471 85L96.6071 62.05H96.8471L106.807 85H101.767L95.4071 68.86L98.5571 66.7L90.9371 85H86.6471ZM93.4571 77.02H100.087L101.617 80.68H92.1071L93.4571 77.02ZM125.062 83.17C124.822 83.37 124.372 83.64 123.712 83.98C123.072 84.32 122.282 84.62 121.342 84.88C120.402 85.14 119.362 85.26 118.222 85.24C116.482 85.2 114.922 84.89 113.542 84.31C112.182 83.71 111.022 82.9 110.062 81.88C109.122 80.86 108.402 79.69 107.902 78.37C107.402 77.05 107.152 75.64 107.152 74.14C107.152 72.46 107.402 70.92 107.902 69.52C108.422 68.12 109.152 66.91 110.092 65.89C111.052 64.87 112.192 64.08 113.512 63.52C114.832 62.96 116.292 62.68 117.892 62.68C119.372 62.68 120.682 62.88 121.822 63.28C122.962 63.68 123.892 64.11 124.612 64.57L122.902 68.68C122.402 68.3 121.732 67.91 120.892 67.51C120.072 67.09 119.122 66.88 118.042 66.88C117.202 66.88 116.392 67.06 115.612 67.42C114.852 67.76 114.172 68.25 113.572 68.89C112.992 69.53 112.532 70.28 112.192 71.14C111.852 71.98 111.682 72.9 111.682 73.9C111.682 74.96 111.832 75.93 112.132 76.81C112.452 77.69 112.902 78.45 113.482 79.09C114.062 79.71 114.752 80.19 115.552 80.53C116.372 80.87 117.292 81.04 118.312 81.04C119.492 81.04 120.502 80.85 121.342 80.47C122.182 80.09 122.822 79.69 123.262 79.27L125.062 83.17ZM129.42 62.92H144.48V67.12H133.77V71.83H143.25V76.03H133.77V80.8H144.9V85H129.42V62.92Z" fill="#2B50E7"/>
</svg>
