<svg width="150" height="150" viewBox="0 0 150 150" fill="none" xmlns="http://www.w3.org/2000/svg">
<mask id="path-1-inside-1_212_81" fill="white">
<path fill-rule="evenodd" clip-rule="evenodd" d="M0 83C0.762055 90.1035 2.53669 97.0755 5.28115 103.701C9.05025 112.801 14.5747 121.069 21.5391 128.033C28.5035 134.997 36.7714 140.522 45.8709 144.291C54.9703 148.06 64.723 150 74.5721 150C84.4213 150 94.174 148.06 103.273 144.291C112.373 140.522 120.641 134.997 127.605 128.033C134.57 121.069 140.094 112.801 143.863 103.701C146.608 97.0755 148.382 90.1035 149.144 83H0Z"/>
</mask>
<path fill-rule="evenodd" clip-rule="evenodd" d="M0 83C0.762055 90.1035 2.53669 97.0755 5.28115 103.701C9.05025 112.801 14.5747 121.069 21.5391 128.033C28.5035 134.997 36.7714 140.522 45.8709 144.291C54.9703 148.06 64.723 150 74.5721 150C84.4213 150 94.174 148.06 103.273 144.291C112.373 140.522 120.641 134.997 127.605 128.033C134.57 121.069 140.094 112.801 143.863 103.701C146.608 97.0755 148.382 90.1035 149.144 83H0Z" fill="#A5B7FF" fill-opacity="0.85"/>
<path d="M5.28115 103.701L8.05279 102.553L8.05279 102.553L5.28115 103.701ZM0 83V80H-3.33905L-2.98288 83.32L0 83ZM45.8709 144.291L47.0189 141.519L47.0189 141.519L45.8709 144.291ZM103.273 144.291L104.421 147.063L104.421 147.063L103.273 144.291ZM127.605 128.033L125.484 125.912L125.484 125.912L127.605 128.033ZM143.863 103.701L141.091 102.553L141.091 102.553L143.863 103.701ZM149.144 83L152.127 83.32L152.483 80H149.144V83ZM8.05279 102.553C5.41811 96.1925 3.71446 89.4993 2.98288 82.68L-2.98288 83.32C-2.19035 90.7076 -0.344726 97.9586 2.50951 104.849L8.05279 102.553ZM23.6604 125.912C16.9746 119.226 11.6711 111.289 8.05279 102.553L2.50951 104.849C6.42938 114.313 12.1748 122.911 19.4178 130.154L23.6604 125.912ZM47.0189 141.519C38.2835 137.901 30.3462 132.598 23.6604 125.912L19.4178 130.154C26.6608 137.397 35.2594 143.143 44.7228 147.063L47.0189 141.519ZM74.5721 147C65.1169 147 55.7544 145.138 47.0189 141.519L44.7228 147.063C54.1862 150.982 64.329 153 74.5721 153V147ZM102.125 141.519C93.3899 145.138 84.0273 147 74.5721 147V153C84.8152 153 94.958 150.982 104.421 147.063L102.125 141.519ZM125.484 125.912C118.798 132.598 110.861 137.901 102.125 141.519L104.421 147.063C113.885 143.143 122.483 137.397 129.726 130.154L125.484 125.912ZM141.091 102.553C137.473 111.289 132.17 119.226 125.484 125.912L129.726 130.154C136.969 122.911 142.715 114.313 146.635 104.849L141.091 102.553ZM146.161 82.68C145.43 89.4993 143.726 96.1925 141.091 102.553L146.635 104.849C149.489 97.9586 151.335 90.7076 152.127 83.32L146.161 82.68ZM149.144 80H0V86H149.144V80Z" fill="#2B50E7" mask="url(#path-1-inside-1_212_81)"/>
<mask id="path-3-inside-2_212_81" fill="white">
<path fill-rule="evenodd" clip-rule="evenodd" d="M149.144 67C148.382 59.8965 146.608 52.9245 143.863 46.2987C140.094 37.1993 134.57 28.9314 127.605 21.967C120.641 15.0026 112.373 9.47814 103.273 5.70904C94.1739 1.93993 84.4213 0 74.5721 0C64.723 0 54.9703 1.93993 45.8709 5.70903C36.7714 9.47814 28.5035 15.0026 21.5391 21.967C14.5747 28.9314 9.05024 37.1993 5.28114 46.2987C2.53668 52.9245 0.76205 59.8965 -4.10702e-06 67L149.144 67Z"/>
</mask>
<path fill-rule="evenodd" clip-rule="evenodd" d="M149.144 67C148.382 59.8965 146.608 52.9245 143.863 46.2987C140.094 37.1993 134.57 28.9314 127.605 21.967C120.641 15.0026 112.373 9.47814 103.273 5.70904C94.1739 1.93993 84.4213 0 74.5721 0C64.723 0 54.9703 1.93993 45.8709 5.70903C36.7714 9.47814 28.5035 15.0026 21.5391 21.967C14.5747 28.9314 9.05024 37.1993 5.28114 46.2987C2.53668 52.9245 0.76205 59.8965 -4.10702e-06 67L149.144 67Z" fill="#A5B7FF" fill-opacity="0.85"/>
<path d="M143.863 46.2987L141.091 47.4468L141.091 47.4468L143.863 46.2987ZM149.144 67V70H152.483L152.127 66.68L149.144 67ZM103.273 5.70904L102.125 8.48068L102.125 8.48068L103.273 5.70904ZM45.8709 5.70903L44.7228 2.9374L44.7228 2.9374L45.8709 5.70903ZM21.5391 21.967L23.6604 24.0883L23.6604 24.0883L21.5391 21.967ZM5.28114 46.2987L8.05278 47.4468L8.05278 47.4468L5.28114 46.2987ZM-4.10702e-06 67L-2.98289 66.68L-3.33906 70H-4.10702e-06V67ZM141.091 47.4468C143.726 53.8075 145.43 60.5007 146.161 67.32L152.127 66.68C151.335 59.2924 149.489 52.0414 146.635 45.1507L141.091 47.4468ZM125.484 24.0883C132.17 30.7741 137.473 38.7114 141.091 47.4468L146.635 45.1507C142.715 35.6873 136.969 27.0886 129.726 19.8457L125.484 24.0883ZM102.125 8.48068C110.861 12.099 118.798 17.4025 125.484 24.0883L129.726 19.8457C122.483 12.6027 113.885 6.85727 104.421 2.9374L102.125 8.48068ZM74.5721 3C84.0273 3 93.3899 4.86234 102.125 8.48068L104.421 2.9374C94.958 -0.982469 84.8152 -3 74.5721 -3V3ZM47.0189 8.48067C55.7543 4.86234 65.1169 3 74.5721 3V-3C64.329 -3 54.1862 -0.982469 44.7228 2.9374L47.0189 8.48067ZM23.6604 24.0883C30.3462 17.4025 38.2835 12.099 47.0189 8.48067L44.7228 2.9374C35.2594 6.85726 26.6608 12.6027 19.4178 19.8457L23.6604 24.0883ZM8.05278 47.4468C11.6711 38.7113 16.9746 30.7741 23.6604 24.0883L19.4178 19.8457C12.1748 27.0886 6.42937 35.6873 2.5095 45.1507L8.05278 47.4468ZM2.98288 67.32C3.71445 60.5007 5.4181 53.8075 8.05278 47.4468L2.5095 45.1507C-0.344741 52.0414 -2.19035 59.2924 -2.98289 66.68L2.98288 67.32ZM-4.10702e-06 70L149.144 70V64L-4.10702e-06 64V70Z" fill="#2B50E7" mask="url(#path-3-inside-2_212_81)"/>
<path d="M47.704 51.048C47.448 51.2613 46.968 51.5493 46.264 51.912C45.5813 52.2747 44.7387 52.5947 43.736 52.872C42.7333 53.1493 41.624 53.2773 40.408 53.256C38.552 53.2133 36.888 52.8827 35.416 52.264C33.9653 51.624 32.728 50.76 31.704 49.672C30.7013 48.584 29.9333 47.336 29.4 45.928C28.8667 44.52 28.6 43.016 28.6 41.416C28.6 39.624 28.8667 37.9813 29.4 36.488C29.9547 34.9947 30.7333 33.704 31.736 32.616C32.76 31.528 33.976 30.6853 35.384 30.088C36.792 29.4907 38.3493 29.192 40.056 29.192C41.6347 29.192 43.032 29.4053 44.248 29.832C45.464 30.2587 46.456 30.7173 47.224 31.208L45.4 35.592C44.8667 35.1867 44.152 34.7707 43.256 34.344C42.3813 33.896 41.368 33.672 40.216 33.672C39.32 33.672 38.456 33.864 37.624 34.248C36.8133 34.6107 36.088 35.1333 35.448 35.816C34.8293 36.4987 34.3387 37.2987 33.976 38.216C33.6133 39.112 33.432 40.0933 33.432 41.16C33.432 42.2907 33.592 43.3253 33.912 44.264C34.2533 45.2027 34.7333 46.0133 35.352 46.696C35.9707 47.3573 36.7067 47.8693 37.56 48.232C38.4347 48.5947 39.416 48.776 40.504 48.776C41.7627 48.776 42.84 48.5733 43.736 48.168C44.632 47.7627 45.3147 47.336 45.784 46.888L47.704 51.048ZM50.9125 41.256C50.9125 39.6347 51.2218 38.0987 51.8405 36.648C52.4592 35.1973 53.3125 33.9173 54.4005 32.808C55.5098 31.6773 56.7898 30.792 58.2405 30.152C59.6912 29.512 61.2485 29.192 62.9125 29.192C64.5552 29.192 66.1018 29.512 67.5525 30.152C69.0032 30.792 70.2832 31.6773 71.3925 32.808C72.5232 33.9173 73.3978 35.1973 74.0165 36.648C74.6565 38.0987 74.9765 39.6347 74.9765 41.256C74.9765 42.92 74.6565 44.4773 74.0165 45.928C73.3978 47.3787 72.5232 48.6587 71.3925 49.768C70.2832 50.856 69.0032 51.7093 67.5525 52.328C66.1018 52.9467 64.5552 53.256 62.9125 53.256C61.2485 53.256 59.6912 52.9467 58.2405 52.328C56.7898 51.7093 55.5098 50.856 54.4005 49.768C53.3125 48.6587 52.4592 47.3787 51.8405 45.928C51.2218 44.4773 50.9125 42.92 50.9125 41.256ZM55.7125 41.256C55.7125 42.3013 55.8938 43.2827 56.2565 44.2C56.6405 45.096 57.1632 45.896 57.8245 46.6C58.5072 47.2827 59.2858 47.816 60.1605 48.2C61.0565 48.584 62.0272 48.776 63.0725 48.776C64.0752 48.776 65.0032 48.584 65.8565 48.2C66.7312 47.816 67.4885 47.2827 68.1285 46.6C68.7685 45.896 69.2698 45.096 69.6325 44.2C69.9952 43.2827 70.1765 42.3013 70.1765 41.256C70.1765 40.1893 69.9845 39.1973 69.6005 38.28C69.2378 37.3627 68.7258 36.5627 68.0645 35.88C67.4245 35.176 66.6672 34.632 65.7925 34.248C64.9178 33.864 63.9685 33.672 62.9445 33.672C61.9205 33.672 60.9712 33.864 60.0965 34.248C59.2218 34.632 58.4538 35.176 57.7925 35.88C57.1312 36.5627 56.6192 37.3627 56.2565 38.28C55.8938 39.1973 55.7125 40.1893 55.7125 41.256ZM86.7385 29.448C88.6798 29.448 90.3225 29.7787 91.6665 30.44C93.0105 31.08 94.0345 31.9973 94.7385 33.192C95.4425 34.3653 95.7945 35.7627 95.7945 37.384C95.7945 38.344 95.6452 39.3147 95.3465 40.296C95.0692 41.256 94.6105 42.1307 93.9705 42.92C93.3518 43.7093 92.5092 44.3493 91.4425 44.84C90.3972 45.3093 89.1065 45.544 87.5705 45.544H84.2425V53H79.6025V29.448H86.7385ZM87.5385 41.032C88.2425 41.032 88.8292 40.9147 89.2985 40.68C89.7678 40.424 90.1305 40.1147 90.3865 39.752C90.6638 39.368 90.8558 38.9733 90.9625 38.568C91.0905 38.1627 91.1545 37.8107 91.1545 37.512C91.1545 37.2773 91.1118 36.968 91.0265 36.584C90.9625 36.1787 90.8132 35.7733 90.5785 35.368C90.3438 34.9627 89.9812 34.6213 89.4905 34.344C89.0212 34.0667 88.3812 33.928 87.5705 33.928H84.2425V41.032H87.5385ZM105.277 45.672L96.605 29.448H102.333L108.413 41.672L107.037 41.768L113.021 29.448H118.749L109.917 45.672V53H105.277V45.672Z" fill="#2B50E7"/>
<path d="M35.176 98.448C37.1173 98.448 38.76 98.7787 40.104 99.44C41.448 100.08 42.472 100.997 43.176 102.192C43.88 103.365 44.232 104.763 44.232 106.384C44.232 107.344 44.0827 108.315 43.784 109.296C43.5067 110.256 43.048 111.131 42.408 111.92C41.7893 112.709 40.9467 113.349 39.88 113.84C38.8347 114.309 37.544 114.544 36.008 114.544H32.68V122H28.04V98.448H35.176ZM35.976 110.032C36.68 110.032 37.2667 109.915 37.736 109.68C38.2053 109.424 38.568 109.115 38.824 108.752C39.1013 108.368 39.2933 107.973 39.4 107.568C39.528 107.163 39.592 106.811 39.592 106.512C39.592 106.277 39.5493 105.968 39.464 105.584C39.4 105.179 39.2507 104.773 39.016 104.368C38.7813 103.963 38.4187 103.621 37.928 103.344C37.4587 103.067 36.8187 102.928 36.008 102.928H32.68V110.032H35.976ZM43.3528 122L53.9768 97.52H54.2328L64.8568 122H59.4808L52.6968 104.784L56.0568 102.48L47.9288 122H43.3528ZM50.6168 113.488H57.6888L59.3208 117.392H49.1768L50.6168 113.488ZM80.866 104.144C79.97 103.653 79.0527 103.248 78.114 102.928C77.1967 102.608 76.3327 102.448 75.522 102.448C74.5193 102.448 73.73 102.651 73.154 103.056C72.578 103.461 72.29 104.069 72.29 104.88C72.29 105.435 72.5033 105.936 72.93 106.384C73.378 106.811 73.9433 107.195 74.626 107.536C75.33 107.877 76.0553 108.187 76.802 108.464C77.4847 108.72 78.1567 109.029 78.818 109.392C79.5007 109.733 80.1087 110.171 80.642 110.704C81.1753 111.216 81.602 111.867 81.922 112.656C82.242 113.424 82.402 114.373 82.402 115.504C82.402 116.699 82.0927 117.808 81.474 118.832C80.8553 119.856 79.9487 120.688 78.754 121.328C77.5593 121.947 76.0873 122.256 74.338 122.256C73.442 122.256 72.5247 122.171 71.586 122C70.6687 121.808 69.762 121.531 68.866 121.168C67.97 120.784 67.106 120.304 66.274 119.728L68.322 116.112C68.8767 116.517 69.474 116.88 70.114 117.2C70.7753 117.499 71.4367 117.733 72.098 117.904C72.7593 118.075 73.3673 118.16 73.922 118.16C74.4767 118.16 75.0313 118.085 75.586 117.936C76.162 117.765 76.6313 117.488 76.994 117.104C77.378 116.72 77.57 116.187 77.57 115.504C77.57 115.035 77.41 114.608 77.09 114.224C76.7913 113.84 76.3753 113.488 75.842 113.168C75.33 112.848 74.7647 112.571 74.146 112.336C73.4207 112.059 72.674 111.739 71.906 111.376C71.138 111.013 70.4127 110.576 69.73 110.064C69.0687 109.531 68.5247 108.88 68.098 108.112C67.6927 107.323 67.49 106.363 67.49 105.232C67.49 103.867 67.7887 102.683 68.386 101.68C69.0047 100.677 69.8687 99.888 70.978 99.312C72.0873 98.7147 73.3673 98.384 74.818 98.32C76.7167 98.32 78.2527 98.544 79.426 98.992C80.6207 99.44 81.6873 99.9733 82.626 100.592L80.866 104.144ZM85.3463 98.448H101.218V102.928H95.4903V122H90.8503V102.928H85.3463V98.448ZM105.696 98.448H121.76V102.928H110.336V107.952H120.448V112.432H110.336V117.52H122.208V122H105.696V98.448Z" fill="#2B50E7"/>
</svg>
