<svg width="150" height="150" viewBox="0 0 150 150" fill="none" xmlns="http://www.w3.org/2000/svg">
<path d="M75.5 64.0714V95.3571M75.5 64.0714L64.9444 74.5M75.5 64.0714L86.0556 74.5M75.8309 43.5414L75.1691 42.8871C73.3435 41.0835 72.4304 40.1817 71.3654 39.5368C70.4207 38.965 69.391 38.5436 68.3143 38.2881C67.0994 38 65.8084 38 63.2266 38H44.8889C38.9772 38 36.0214 38 33.7634 39.1367C31.7773 40.1364 30.1625 41.7318 29.1505 43.6941C28 45.9249 28 48.8451 28 54.6857V94.3143C28 100.155 28 103.075 29.1505 105.306C30.1625 107.268 31.7773 108.864 33.7634 109.863C36.0214 111 38.9772 111 44.8889 111H106.111C112.023 111 114.979 111 117.237 109.863C119.223 108.864 120.838 107.268 121.849 105.306C123 103.075 123 100.155 123 94.3143V65.1143C123 59.2738 123 56.3535 121.849 54.1227C120.838 52.1604 119.223 50.565 117.237 49.5652C114.979 48.4286 112.023 48.4286 106.111 48.4286H87.7735C85.1916 48.4286 83.9006 48.4286 82.6857 48.1404C81.609 47.885 80.5793 47.4636 79.6346 46.8918C78.5696 46.2469 77.6565 45.3451 75.8309 43.5414Z" stroke="#A68563" stroke-width="10" stroke-linecap="round" stroke-linejoin="round"/>
</svg>
