<svg width="150" height="150" viewBox="0 0 150 150" fill="none" xmlns="http://www.w3.org/2000/svg">
<circle cx="75" cy="75" r="73.5" fill="#A68563" fill-opacity="0.3" stroke="#A68563" stroke-width="3"/>
<path d="M53.3448 88.8382L53.3448 75C53.3448 63.9543 44.3905 55 33.3448 55H28" stroke="#A68563" stroke-width="15" stroke-linecap="round"/>
<path d="M91.6207 88.8382C91.6207 92.9804 88.2628 96.3382 84.1207 96.3382C79.9785 96.3382 76.6207 92.9804 76.6207 88.8382H91.6207ZM76.6207 88.8382V75H91.6207V88.8382H76.6207ZM64.1207 62.5L32.5258 62.5V47.5L64.1207 47.5V62.5ZM76.6207 75C76.6207 68.0964 71.0242 62.5 64.1207 62.5V47.5C79.3085 47.5 91.6207 59.8122 91.6207 75H76.6207Z" fill="#A68563"/>
<path d="M122.397 88.8382C122.397 92.9804 119.039 96.3382 114.897 96.3382C110.754 96.3382 107.397 92.9804 107.397 88.8382H122.397ZM107.397 88.8382V75H122.397V88.8382H107.397ZM94.8965 62.5L63.3017 62.5V47.5L94.8965 47.5V62.5ZM107.397 75C107.397 68.0964 101.8 62.5 94.8965 62.5V47.5C110.084 47.5 122.397 59.8122 122.397 75H107.397Z" fill="#A68563"/>
<path d="M51.6316 111.156C52.4091 112.446 54.2806 112.446 55.0581 111.156L67.1967 91.0025C67.9996 89.6695 67.0396 87.9706 65.4835 87.9706H41.2062C39.6501 87.9706 38.6901 89.6695 39.493 91.0025L51.6316 111.156Z" fill="#A68563"/>
<path d="M82.4074 111.156C83.1849 112.446 85.0564 112.446 85.8339 111.156L97.9725 91.0025C98.7754 89.6695 97.8154 87.9706 96.2593 87.9706H71.982C70.4259 87.9706 69.4659 89.6695 70.2688 91.0025L82.4074 111.156Z" fill="#A68563"/>
<path d="M113.183 111.156C113.961 112.446 115.832 112.446 116.61 111.156L128.748 91.0025C129.551 89.6695 128.591 87.9706 127.035 87.9706H102.758C101.202 87.9706 100.242 89.6695 101.045 91.0025L113.183 111.156Z" fill="#A68563"/>
</svg>
