<svg width="150" height="150" viewBox="0 0 150 150" fill="none" xmlns="http://www.w3.org/2000/svg">
<circle cx="75" cy="75" r="73.5" transform="rotate(90 75 75)" fill="#A68563" fill-opacity="0.3" stroke="#A68563" stroke-width="3"/>
<path d="M61.1618 53.3448L75 53.3448C86.0457 53.3448 95 44.3905 95 33.3448V28" stroke="#A68563" stroke-width="15" stroke-linecap="round"/>
<path d="M61.1618 91.6207C57.0196 91.6207 53.6618 88.2628 53.6618 84.1207C53.6618 79.9785 57.0196 76.6207 61.1618 76.6207V91.6207ZM61.1618 76.6207H75V91.6207H61.1618V76.6207ZM87.5 64.1207L87.5 32.5258H102.5L102.5 64.1207H87.5ZM75 76.6207C81.9036 76.6207 87.5 71.0242 87.5 64.1207H102.5C102.5 79.3085 90.1878 91.6207 75 91.6207V76.6207Z" fill="#A68563"/>
<path d="M61.1618 122.397C57.0196 122.397 53.6618 119.039 53.6618 114.897C53.6618 110.754 57.0196 107.397 61.1618 107.397V122.397ZM61.1618 107.397H75V122.397H61.1618V107.397ZM87.5 94.8965L87.5 63.3017H102.5L102.5 94.8965H87.5ZM75 107.397C81.9036 107.397 87.5 101.8 87.5 94.8965H102.5C102.5 110.084 90.1878 122.397 75 122.397V107.397Z" fill="#A68563"/>
<path d="M38.8444 51.6316C37.5536 52.4091 37.5536 54.2806 38.8444 55.0581L58.9975 67.1967C60.3305 67.9996 62.0294 67.0396 62.0294 65.4835V41.2062C62.0294 39.6501 60.3305 38.6901 58.9975 39.493L38.8444 51.6316Z" fill="#A68563"/>
<path d="M38.8444 82.4074C37.5536 83.1849 37.5536 85.0564 38.8444 85.8339L58.9975 97.9725C60.3305 98.7754 62.0294 97.8154 62.0294 96.2593V71.982C62.0294 70.4259 60.3305 69.4659 58.9975 70.2688L38.8444 82.4074Z" fill="#A68563"/>
<path d="M38.8444 113.183C37.5536 113.961 37.5536 115.832 38.8444 116.61L58.9975 128.748C60.3305 129.551 62.0294 128.591 62.0294 127.035V102.758C62.0294 101.202 60.3305 100.242 58.9975 101.045L38.8444 113.183Z" fill="#A68563"/>
</svg>
