<svg width="150" height="150" viewBox="0 0 150 150" fill="none" xmlns="http://www.w3.org/2000/svg">
<mask id="mask0_195_82" style="mask-type:luminance" maskUnits="userSpaceOnUse" x="26" y="37" width="99" height="77">
<path fill-rule="evenodd" clip-rule="evenodd" d="M90.35 80.3858C90.35 77.5255 89.4791 74.7294 87.8473 72.3512C86.2156 69.9729 83.8963 68.1193 81.1828 67.0247C78.4694 65.9301 75.4835 65.6437 72.6029 66.2017C69.7223 66.7598 67.0763 68.1371 64.9995 70.1597C62.9227 72.1822 61.5083 74.7591 60.9353 77.5644C60.3623 80.3698 60.6564 83.2776 61.7804 85.9201C62.9043 88.5627 64.8077 90.8214 67.2498 92.4104C69.6918 93.9995 72.5629 94.8477 75.5 94.8477C79.4385 94.8477 83.2156 93.3241 86.0005 90.6119C88.7855 87.8998 90.35 84.2213 90.35 80.3858ZM75.5 104.489C70.6049 104.489 65.8198 103.075 61.7496 100.427C57.6795 97.7784 54.5072 94.014 52.634 89.6097C50.7607 85.2054 50.2706 80.3591 51.2256 75.6835C52.1805 71.0079 54.5378 66.7131 57.9991 63.3422C61.4605 59.9714 65.8705 57.6757 70.6715 56.7457C75.4725 55.8157 80.4489 56.293 84.9714 58.1173C89.4939 59.9416 93.3593 63.031 96.0789 66.9948C98.7984 70.9585 100.25 75.6186 100.25 80.3858C100.25 86.7784 97.6424 92.9091 93.0009 97.4293C88.3594 101.95 82.0641 104.489 75.5 104.489ZM57.779 39.6996L54.4625 42.7848C52.6273 44.5075 50.1804 45.4745 47.6315 45.4843H35.9C33.4419 45.3385 31.0238 46.1424 29.1704 47.7218C27.3171 49.3011 26.1779 51.5284 26 53.9205V104.73C26.1654 107.131 27.2992 109.37 29.154 110.96C31.0088 112.549 33.4339 113.36 35.9 113.214H115.1C117.566 113.36 119.991 112.549 121.846 110.96C123.701 109.37 124.835 107.131 125 104.73V53.9205C124.835 51.5198 123.701 49.2803 121.846 47.6907C119.991 46.1012 117.566 45.2907 115.1 45.4361H103.368C100.82 45.4262 98.3727 44.4593 96.5375 42.7366L93.221 39.6514C91.378 37.9463 88.9321 36.9969 86.39 37H64.61C62.0611 37.0099 59.6142 37.9769 57.779 39.6996Z" fill="white"/>
</mask>
<g mask="url(#mask0_195_82)">
<path d="M26 27.3588H125V123.772H26V27.3588Z" fill="#A68563"/>
</g>
</svg>
