<svg width="170" height="135" viewBox="0 0 170 135" fill="none" xmlns="http://www.w3.org/2000/svg">
<path fill-rule="evenodd" clip-rule="evenodd" d="M2 16C2 8.26801 8.26801 2 16 2H154C161.732 2 168 8.26801 168 16V96.201C168 99.914 166.525 103.475 163.899 106.101L137.531 132.469C124 119.19 105.456 111 85 111C64.4503 111 45.8309 119.265 32.2844 132.651L6.04105 106.09C3.45194 103.47 2 99.9342 2 96.2504V16Z" fill="#84694E" fill-opacity="0.3"/>
<path d="M163.899 106.101L162.839 105.04L162.839 105.04L163.899 106.101ZM137.531 132.469L136.48 133.54L137.541 134.581L138.591 133.53L137.531 132.469ZM32.2844 132.651L31.2174 133.706L32.2717 134.773L33.3387 133.718L32.2844 132.651ZM6.04105 106.09L4.97402 107.144L4.97402 107.144L6.04105 106.09ZM16 0.5C7.43959 0.5 0.5 7.43959 0.5 16H3.5C3.5 9.09644 9.09644 3.5 16 3.5V0.5ZM154 0.5H16V3.5H154V0.5ZM169.5 16C169.5 7.43959 162.56 0.5 154 0.5V3.5C160.904 3.5 166.5 9.09644 166.5 16H169.5ZM169.5 96.201V16H166.5V96.201H169.5ZM164.96 107.161C167.867 104.254 169.5 100.312 169.5 96.201H166.5C166.5 99.5162 165.183 102.696 162.839 105.04L164.96 107.161ZM138.591 133.53L164.96 107.161L162.839 105.04L136.47 131.409L138.591 133.53ZM85 112.5C105.048 112.5 123.218 120.524 136.48 133.54L138.581 131.399C124.781 117.855 105.865 109.5 85 109.5V112.5ZM33.3387 133.718C46.6159 120.598 64.8608 112.5 85 112.5V109.5C64.0398 109.5 45.0459 117.932 31.23 131.585L33.3387 133.718ZM4.97402 107.144L31.2174 133.706L33.3514 131.597L7.10808 105.036L4.97402 107.144ZM0.5 96.2504C0.5 100.329 2.10751 104.243 4.97402 107.144L7.10808 105.036C4.79637 102.696 3.5 99.5395 3.5 96.2504H0.5ZM0.5 16V96.2504H3.5V16H0.5Z" fill="#84694E"/>
<path d="M20.9322 62.11C18.0622 60.1216 18.0622 55.8784 20.9322 53.89L44.6525 37.4561C47.9685 35.1587 52.5 37.532 52.5 41.5661V74.4339C52.5 78.468 47.9685 80.8413 44.6525 78.5439L20.9322 62.11Z" fill="#84694E"/>
<path d="M149.068 53.89C151.938 55.8784 151.938 60.1216 149.068 62.11L125.347 78.5439C122.031 80.8413 117.5 78.468 117.5 74.4339V41.5661C117.5 37.532 122.031 35.1587 125.347 37.4561L149.068 53.89Z" fill="#84694E"/>
<rect x="40" y="65" width="15" height="90" rx="7.5" transform="rotate(-90 40 65)" fill="#84694E"/>
</svg>
