<svg width="300" height="150" viewBox="0 0 300 150" fill="none" xmlns="http://www.w3.org/2000/svg">
<path d="M298.5 75C298.5 95.815 298.423 113.75 280.37 126.818C271.251 133.419 257.436 138.854 236.453 142.63C215.481 146.403 187.454 148.5 150 148.5C112.546 148.5 84.5186 146.403 63.5469 142.63C42.5637 138.854 28.7486 133.419 19.6295 126.818C1.57697 113.75 1.5 95.815 1.5 75C1.5 54.185 1.57697 36.2495 19.6295 23.1821C28.7486 16.5811 42.5637 11.1455 63.5469 7.37017C84.5186 3.59691 112.546 1.5 150 1.5C187.454 1.5 215.481 3.59691 236.453 7.37017C257.436 11.1455 271.251 16.5811 280.37 23.1821C298.423 36.2495 298.5 54.185 298.5 75Z" fill="#AB7E38" fill-opacity="0.85" stroke="#5A3F16" stroke-width="3"/>
<rect x="43" y="85.2132" width="21.2132" height="90" rx="10.6066" transform="rotate(-90 43 85.2132)" fill="#5A3F16"/>
<path d="M148.854 108.161C144.951 108.161 143 107.463 143 106.066C143 105.673 143.125 105.1 143.376 104.348L164.431 42.9561C164.932 41.5954 166.74 40.915 169.855 40.915H174.797C177.912 40.915 179.72 41.5954 180.222 42.9561L201.276 104.348C201.455 105.064 201.545 105.637 201.545 106.066C201.545 106.783 201.151 107.32 200.363 107.678C199.611 108 198.412 108.161 196.765 108.161H192.575C191.071 108.161 189.854 108.018 188.923 107.731C188.028 107.409 187.473 106.89 187.258 106.174L183.391 94.5186H160.886L157.019 106.174C156.625 107.499 155.157 108.161 152.614 108.161H148.854ZM179.309 81.8965L173.884 64.9238C173.562 64.0645 173.275 63.0798 173.024 61.9697C172.81 60.8597 172.613 59.8034 172.434 58.8008H172.058L171.843 59.9824C171.485 62.0951 171.073 63.7422 170.607 64.9238L164.968 81.8965H179.309ZM217.893 108.659C214.172 108.659 211.33 107.619 209.367 105.539C207.434 103.43 206.467 100.236 206.467 95.959V51.6182C206.467 49.9189 208.034 49.0693 211.169 49.0693H213.366C214.978 49.0693 216.149 49.2891 216.882 49.7285C217.644 50.1387 218.024 50.7686 218.024 51.6182V96.0908C218.024 97.292 218.244 98.1562 218.684 98.6836C219.123 99.2109 219.855 99.4746 220.881 99.4746C221.145 99.4746 221.54 99.416 222.067 99.2988C222.214 99.2695 222.36 99.2402 222.507 99.2109C222.653 99.1816 222.814 99.167 222.99 99.167C223.43 99.167 223.825 99.5625 224.177 100.354C224.558 101.115 224.851 101.979 225.056 102.946C225.261 103.884 225.363 104.499 225.363 104.792C225.363 107.37 222.873 108.659 217.893 108.659ZM241.184 108.659C237.463 108.659 234.621 107.619 232.658 105.539C230.725 103.43 229.758 100.236 229.758 95.959V51.6182C229.758 49.9189 231.325 49.0693 234.46 49.0693H236.657C238.269 49.0693 239.44 49.2891 240.173 49.7285C240.935 50.1387 241.315 50.7686 241.315 51.6182V96.0908C241.315 97.292 241.535 98.1562 241.975 98.6836C242.414 99.2109 243.146 99.4746 244.172 99.4746C244.436 99.4746 244.831 99.416 245.358 99.2988C245.505 99.2695 245.651 99.2402 245.798 99.2109C245.944 99.1816 246.105 99.167 246.281 99.167C246.721 99.167 247.116 99.5625 247.468 100.354C247.849 101.115 248.142 101.979 248.347 102.946C248.552 103.884 248.654 104.499 248.654 104.792C248.654 107.37 246.164 108.659 241.184 108.659Z" fill="#5A3F16"/>
</svg>
