<svg width="150" height="150" viewBox="0 0 150 150" fill="none" xmlns="http://www.w3.org/2000/svg">
<circle cx="75" cy="75" r="73.5" fill="#677EDB" fill-opacity="0.85" stroke="#243CA0" stroke-width="3"/>
<path d="M90.9099 68.9103C94.0566 65.7636 98.0657 63.6207 102.43 62.7525C106.795 61.8844 111.319 62.3299 115.43 64.0329C119.542 65.7359 123.056 68.6198 125.528 72.3199C128 76.02 129.32 80.3701 129.32 84.8202C129.32 89.2703 128 93.6204 125.528 97.3205C123.056 101.021 119.542 103.905 115.43 105.607C111.319 107.31 106.795 107.756 102.43 106.888C98.0657 106.02 94.0566 103.877 90.9099 100.73" stroke="#243CA0" stroke-width="10" stroke-linecap="round"/>
<path d="M58.7297 80.7297C55.583 83.8764 51.5739 86.0193 47.2093 86.8875C42.8448 87.7556 38.3208 87.3101 34.2094 85.6071C30.0981 83.9041 26.5841 81.0202 24.1117 77.3201C21.6394 73.62 20.3198 69.2699 20.3198 64.8198C20.3198 60.3697 21.6394 56.0196 24.1117 52.3195C26.5841 48.6194 30.0981 45.7355 34.2094 44.0325C38.3208 42.3295 42.8448 41.884 47.2093 42.7521C51.5739 43.6203 55.583 45.7632 58.7297 48.9099" stroke="#243CA0" stroke-width="10" stroke-linecap="round"/>
</svg>
