<svg width="1330" height="1330" viewBox="0 0 1330 1330" fill="none" xmlns="http://www.w3.org/2000/svg">
<circle cx="665" cy="665" r="651.7" fill="#677EDB" fill-opacity="0.85" stroke="#243CA0" stroke-width="26.6"/>
<rect x="502.604" y="218" width="18.6826" height="511.617" rx="9.34132" fill="#3F54A8"/>
<ellipse cx="98.2392" cy="68.4904" rx="98.2392" ry="68.4904" transform="matrix(0.881428 -0.472319 0.528201 0.849119 305 739.064)" fill="#3F54A8"/>
<path d="M595.3 372.491C554.694 338.512 522.442 235.966 520.928 224.826C519.414 213.687 520.928 378.24 520.928 378.24C648.205 433.843 671 500.969 607.874 675.725C646.645 619.662 661.51 586.388 665 520.874C664.232 456.939 647.606 424.76 595.3 372.491Z" fill="#3F54A8"/>
<path d="M543.741 1149C612.927 1089.13 686.58 1034.16 763.825 984.442C818.065 949.53 669.499 1072.33 616.049 1108.37C576.858 1134.8 681.257 1039.44 721.001 1013.8C778.911 976.45 607.622 1092.03 549.357 1128.86C534.552 1138.21 489.037 1163.96 535.492 1137.05C583.606 1109.18 633.127 1083.38 680.46 1054.26C693.931 1045.97 704.14 1036.32 714.157 1024.39C731.098 1004.2 736.187 992.389 761.719 983.076" stroke="#243CA0" stroke-width="58" stroke-linecap="round"/>
<path d="M714.332 989.221C644.439 1002.1 576.744 1039.99 518.117 1078.33C515.883 1079.79 510.023 1084.57 512.676 1084.13C526.499 1081.84 539.771 1077.08 553.218 1073.21C615.602 1055.25 673.991 1032.95 733.287 1007.66" stroke="#243CA0" stroke-width="58" stroke-linecap="round"/>
<path d="M780.674 976.931C778.236 901.051 769.561 826.222 771.196 749.894C773.366 648.593 790.194 547.826 798.224 446.895C803.284 383.294 802.787 319.61 802.787 255.878C802.787 226.87 799.85 196.313 802.787 167.453C803.575 159.714 806.401 163.388 809.808 168.477C828.656 196.638 844.253 228.218 859.827 258.097C895.767 327.048 902.268 399.668 922.833 473.013" stroke="#243CA0" stroke-width="58" stroke-linecap="round"/>
</svg>
