<svg width="1330" height="1330" viewBox="0 0 1330 1330" fill="none" xmlns="http://www.w3.org/2000/svg">
<circle cx="665" cy="665" r="651.7" fill="#677EDB" fill-opacity="0.85" stroke="#243CA0" stroke-width="26.6"/>
<path d="M369.315 845.878C411.416 808.421 456.235 774.03 503.24 742.924C536.246 721.082 445.842 797.909 413.316 820.46C389.467 836.995 452.996 777.332 477.182 761.294C512.421 737.925 408.188 810.237 372.733 833.276C363.723 839.13 336.027 855.239 364.295 838.402C393.574 820.964 423.708 804.822 452.511 786.605C460.709 781.42 466.921 775.382 473.016 767.915C483.325 755.287 486.422 747.896 501.959 742.07" stroke="#3F54A8" stroke-width="58" stroke-linecap="round"/>
<path d="M473.123 745.915C430.592 753.973 389.398 777.675 353.722 801.664C352.363 802.577 348.797 805.57 350.411 805.295C358.823 803.859 366.899 800.881 375.082 798.46C413.044 787.226 448.574 773.275 484.657 757.449" stroke="#3F54A8" stroke-width="58" stroke-linecap="round"/>
<path d="M513.493 738.225C512.01 690.752 506.731 643.936 507.726 596.183C509.046 532.805 519.287 469.762 524.173 406.615C527.252 366.824 526.95 326.981 526.95 287.108C526.95 268.96 525.162 249.842 526.95 231.786C527.429 226.944 529.149 229.243 531.222 232.427C542.691 250.045 552.182 269.803 561.659 288.496C583.53 331.635 587.485 377.068 600 422.956" stroke="#3F54A8" stroke-width="58" stroke-linecap="round"/>
<rect x="757.341" y="150" width="31.1377" height="852.695" rx="10" fill="#243CA0"/>
<ellipse cx="163.732" cy="114.151" rx="163.732" ry="114.151" transform="matrix(0.881428 -0.472319 0.528201 0.849119 428 1018.44)" fill="#243CA0"/>
<path d="M911.832 407.485C844.157 350.854 790.404 179.943 787.88 161.377C785.357 142.811 787.88 417.066 787.88 417.066C1000.01 509.738 1038 621.615 932.79 912.874C997.408 819.436 1022.18 763.98 1028 654.79C1026.72 548.232 999.01 494.599 911.832 407.485Z" fill="#243CA0"/>
</svg>
