<svg width="150" height="150" viewBox="0 0 150 150" fill="none" xmlns="http://www.w3.org/2000/svg">
<circle cx="75" cy="75" r="73.5" fill="#677EDB" fill-opacity="0.85" stroke="#243CA0" stroke-width="3"/>
<path d="M42.2433 87.56C41.9233 87.8267 41.3233 88.1867 40.4433 88.64C39.59 89.0933 38.5366 89.4933 37.2833 89.84C36.0299 90.1867 34.6433 90.3467 33.1233 90.32C30.8033 90.2667 28.7233 89.8533 26.8833 89.08C25.0699 88.28 23.5233 87.2 22.2433 85.84C20.9899 84.48 20.0299 82.92 19.3633 81.16C18.6966 79.4 18.3633 77.52 18.3633 75.52C18.3633 73.28 18.6966 71.2267 19.3633 69.36C20.0566 67.4933 21.0299 65.88 22.2833 64.52C23.5633 63.16 25.0833 62.1067 26.8433 61.36C28.6033 60.6133 30.5499 60.24 32.6833 60.24C34.6566 60.24 36.4033 60.5067 37.9233 61.04C39.4433 61.5733 40.6833 62.1467 41.6433 62.76L39.3633 68.24C38.6966 67.7333 37.8033 67.2133 36.6833 66.68C35.5899 66.12 34.3233 65.84 32.8833 65.84C31.7633 65.84 30.6833 66.08 29.6433 66.56C28.6299 67.0133 27.7233 67.6667 26.9233 68.52C26.1499 69.3733 25.5366 70.3733 25.0833 71.52C24.6299 72.64 24.4033 73.8667 24.4033 75.2C24.4033 76.6133 24.6033 77.9067 25.0033 79.08C25.4299 80.2533 26.0299 81.2667 26.8033 82.12C27.5766 82.9467 28.4966 83.5867 29.5633 84.04C30.6566 84.4933 31.8833 84.72 33.2433 84.72C34.8166 84.72 36.1633 84.4667 37.2833 83.96C38.4033 83.4533 39.2566 82.92 39.8433 82.36L42.2433 87.56ZM46.2539 75.32C46.2539 73.2933 46.6406 71.3733 47.4139 69.56C48.1872 67.7467 49.2539 66.1467 50.6139 64.76C52.0006 63.3467 53.6006 62.24 55.4139 61.44C57.2272 60.64 59.1739 60.24 61.2539 60.24C63.3072 60.24 65.2406 60.64 67.0539 61.44C68.8672 62.24 70.4672 63.3467 71.8539 64.76C73.2672 66.1467 74.3606 67.7467 75.1339 69.56C75.9339 71.3733 76.3339 73.2933 76.3339 75.32C76.3339 77.4 75.9339 79.3467 75.1339 81.16C74.3606 82.9733 73.2672 84.5733 71.8539 85.96C70.4672 87.32 68.8672 88.3867 67.0539 89.16C65.2406 89.9333 63.3072 90.32 61.2539 90.32C59.1739 90.32 57.2272 89.9333 55.4139 89.16C53.6006 88.3867 52.0006 87.32 50.6139 85.96C49.2539 84.5733 48.1872 82.9733 47.4139 81.16C46.6406 79.3467 46.2539 77.4 46.2539 75.32ZM52.2539 75.32C52.2539 76.6267 52.4806 77.8533 52.9339 79C53.4139 80.12 54.0672 81.12 54.8939 82C55.7472 82.8533 56.7206 83.52 57.8139 84C58.9339 84.48 60.1472 84.72 61.4539 84.72C62.7072 84.72 63.8672 84.48 64.9339 84C66.0272 83.52 66.9739 82.8533 67.7739 82C68.5739 81.12 69.2006 80.12 69.6539 79C70.1072 77.8533 70.3339 76.6267 70.3339 75.32C70.3339 73.9867 70.0939 72.7467 69.6139 71.6C69.1606 70.4533 68.5206 69.4533 67.6939 68.6C66.8939 67.72 65.9472 67.04 64.8539 66.56C63.7606 66.08 62.5739 65.84 61.2939 65.84C60.0139 65.84 58.8272 66.08 57.7339 66.56C56.6406 67.04 55.6806 67.72 54.8539 68.6C54.0272 69.4533 53.3872 70.4533 52.9339 71.6C52.4806 72.7467 52.2539 73.9867 52.2539 75.32ZM91.0364 60.56C93.4631 60.56 95.5164 60.9733 97.1964 61.8C98.8764 62.6 100.156 63.7467 101.036 65.24C101.916 66.7067 102.356 68.4533 102.356 70.48C102.356 71.68 102.17 72.8933 101.796 74.12C101.45 75.32 100.876 76.4133 100.076 77.4C99.3031 78.3867 98.2497 79.1867 96.9164 79.8C95.6097 80.3867 93.9964 80.68 92.0764 80.68H87.9164V90H82.1164V60.56H91.0364ZM92.0364 75.04C92.9164 75.04 93.6497 74.8933 94.2364 74.6C94.8231 74.28 95.2764 73.8933 95.5964 73.44C95.9431 72.96 96.1831 72.4667 96.3164 71.96C96.4764 71.4533 96.5564 71.0133 96.5564 70.64C96.5564 70.3467 96.5031 69.96 96.3964 69.48C96.3164 68.9733 96.1297 68.4667 95.8364 67.96C95.5431 67.4533 95.0897 67.0267 94.4764 66.68C93.8897 66.3333 93.0897 66.16 92.0764 66.16H87.9164V75.04H92.0364ZM114.21 80.84L103.37 60.56H110.53L118.13 75.84L116.41 75.96L123.89 60.56H131.05L120.01 80.84V90H114.21V80.84Z" fill="#243CA0"/>
</svg>
