<svg width="150" height="150" viewBox="0 0 150 150" fill="none" xmlns="http://www.w3.org/2000/svg">
<g clip-path="url(#clip0_3_2)">
<circle cx="75" cy="75" r="73.5" transform="rotate(-180 75 75)" fill="#84694E" fill-opacity="0.3" stroke="#84694E" stroke-width="3"/>
<path d="M55.6334 54H93.3666C97.0085 54 99.8106 57.2181 99.3096 60.8254L92.3651 110.825C91.9532 113.792 89.417 116 86.4222 116H62.5778C59.583 116 57.0468 113.792 56.6349 110.825L49.6904 60.8254C49.1894 57.2181 51.9915 54 55.6334 54Z" stroke="#84694E" stroke-width="10"/>
<line x1="74.5" y1="66" x2="74.5" y2="113" stroke="#84694E" stroke-width="3"/>
<line x1="84.4971" y1="66.0936" x2="81.4971" y2="114.094" stroke="#84694E" stroke-width="3"/>
<line x1="64.497" y1="65.9044" x2="67.497" y2="112.904" stroke="#84694E" stroke-width="3"/>
<rect x="45" y="31" width="60" height="10" rx="5" fill="#84694E"/>
</g>
<defs>
<clipPath id="clip0_3_2">
<rect width="150" height="150" fill="white" transform="matrix(-1 0 0 -1 150 150)"/>
</clipPath>
</defs>
</svg>
