<svg width="369" height="257" viewBox="0 0 369 257" fill="none" xmlns="http://www.w3.org/2000/svg">
<circle cx="75" cy="75" r="72.5" transform="matrix(-1 0 0 1 172 24)" fill="#504335" fill-opacity="0.5" stroke="#413426" stroke-width="5"/>
<path d="M118.655 112.838L118.655 99C118.655 87.9543 127.609 79 138.655 79H144" stroke="#413426" stroke-width="15" stroke-linecap="round"/>
<path d="M80.3794 112.838C80.3794 116.98 83.7373 120.338 87.8794 120.338C92.0215 120.338 95.3794 116.98 95.3794 112.838H80.3794ZM95.3794 112.838V99H80.3794V112.838H95.3794ZM107.879 86.5H139.474V71.5H107.879V86.5ZM95.3794 99C95.3794 92.0964 100.976 86.5 107.879 86.5V71.5C92.6916 71.5 80.3794 83.8122 80.3794 99H95.3794Z" fill="#413426"/>
<path d="M49.6035 112.838C49.6035 116.98 52.9614 120.338 57.1035 120.338C61.2457 120.338 64.6035 116.98 64.6035 112.838H49.6035ZM64.6035 112.838V99H49.6035L49.6035 112.838H64.6035ZM77.1035 86.5H108.698V71.5H77.1035V86.5ZM64.6035 99C64.6035 92.0964 70.2 86.5 77.1035 86.5V71.5C61.9157 71.5 49.6035 83.8122 49.6035 99H64.6035Z" fill="#413426"/>
<path d="M120.368 135.156C119.591 136.446 117.719 136.446 116.942 135.156L104.803 115.003C104 113.67 104.96 111.971 106.516 111.971H130.794C132.35 111.971 133.31 113.67 132.507 115.003L120.368 135.156Z" fill="#413426"/>
<path d="M89.5926 135.156C88.8151 136.446 86.9436 136.446 86.1661 135.156L74.0275 115.003C73.2246 113.67 74.1846 111.971 75.7407 111.971H100.018C101.574 111.971 102.534 113.67 101.731 115.003L89.5926 135.156Z" fill="#413426"/>
<path d="M58.8167 135.156C58.0392 136.446 56.1677 136.446 55.3902 135.156L43.2516 115.003C42.4487 113.67 43.4087 111.971 44.9648 111.971H69.2421C70.7982 111.971 71.7582 113.67 70.9553 115.003L58.8167 135.156Z" fill="#413426"/>
<circle cx="270" cy="99" r="72.5" fill="#A68563" fill-opacity="0.5" stroke="#544431" stroke-width="5"/>
<path d="M248.345 112.838V99C248.345 87.9543 239.391 79 228.345 79H223" stroke="#544431" stroke-width="15" stroke-linecap="round"/>
<path d="M286.621 112.838C286.621 116.98 283.263 120.338 279.121 120.338C274.978 120.338 271.621 116.98 271.621 112.838H286.621ZM271.621 112.838V99H286.621V112.838H271.621ZM259.121 86.5H227.526V71.5H259.121V86.5ZM271.621 99C271.621 92.0964 266.024 86.5 259.121 86.5V71.5C274.308 71.5 286.621 83.8122 286.621 99H271.621Z" fill="#544431"/>
<path d="M317.396 112.838C317.396 116.98 314.039 120.338 309.896 120.338C305.754 120.338 302.396 116.98 302.396 112.838H317.396ZM302.396 112.838V99H317.396V112.838H302.396ZM289.896 86.5H258.302V71.5H289.896V86.5ZM302.396 99C302.396 92.0964 296.8 86.5 289.896 86.5V71.5C305.084 71.5 317.396 83.8122 317.396 99H302.396Z" fill="#544431"/>
<path d="M246.632 135.156C247.409 136.446 249.281 136.446 250.058 135.156L262.197 115.003C263 113.67 262.04 111.971 260.484 111.971H236.206C234.65 111.971 233.69 113.67 234.493 115.003L246.632 135.156Z" fill="#544431"/>
<path d="M277.407 135.156C278.185 136.446 280.056 136.446 280.834 135.156L292.973 115.003C293.775 113.67 292.815 111.971 291.259 111.971H266.982C265.426 111.971 264.466 113.67 265.269 115.003L277.407 135.156Z" fill="#544431"/>
<path d="M308.183 135.156C308.961 136.446 310.832 136.446 311.61 135.156L323.748 115.003C324.551 113.67 323.591 111.971 322.035 111.971H297.758C296.202 111.971 295.242 113.67 296.045 115.003L308.183 135.156Z" fill="#544431"/>
<path fill-rule="evenodd" clip-rule="evenodd" d="M0 20C0 8.95431 8.9543 0 20 0H349C360.046 0 369 8.9543 369 20V163.262C369 171.19 364.317 178.37 357.061 181.566L191.605 254.431C186.443 256.704 180.562 256.692 175.41 254.398L11.8659 181.59C4.64943 178.378 0 171.218 0 163.319V20ZM172 99C172 140.421 138.421 174 97 174C55.5786 174 22 140.421 22 99C22 57.5786 55.5786 24 97 24C138.421 24 172 57.5786 172 99ZM195 99C195 140.421 228.579 174 270 174C311.421 174 345 140.421 345 99C345 57.5786 311.421 24 270 24C228.579 24 195 57.5786 195 99Z" fill="#A68563" fill-opacity="0.8"/>
</svg>
