<svg width="150" height="150" viewBox="0 0 150 150" fill="none" xmlns="http://www.w3.org/2000/svg">
<circle cx="75" cy="75" r="73.5" transform="rotate(-180 75 75)" fill="#84694E" fill-opacity="0.3" stroke="#84694E" stroke-width="3"/>
<path d="M74.1651 72.4607L74.2355 72.7645L74.5393 72.8349L109.785 81L74.5393 89.1651L74.2355 89.2355L74.1651 89.5393L66 124.785L57.8349 89.5393L57.7645 89.2355L57.4607 89.1651L22.2154 81L57.4607 72.8349L57.7645 72.7645L57.8349 72.4607L66 37.2154L74.1651 72.4607Z" fill="#84694E" stroke="#84694E"/>
<path d="M107.215 45.4106L107.286 45.7144L107.589 45.7848L125.785 50L107.589 54.2152L107.286 54.2856L107.215 54.5894L103 72.7845L98.7848 54.5894L98.7144 54.2856L98.4106 54.2152L80.2155 50L98.4106 45.7848L98.7144 45.7144L98.7848 45.4106L103 27.2155L107.215 45.4106Z" fill="#84694E" stroke="#84694E"/>
</svg>
