<svg width="150" height="150" viewBox="0 0 150 150" fill="none" xmlns="http://www.w3.org/2000/svg">
<circle cx="75" cy="75" r="73.5" fill="#677EDB" fill-opacity="0.85" stroke="#243CA0" stroke-width="3"/>
<path d="M25.8645 60.56C28.2912 60.56 30.3445 60.9733 32.0245 61.8C33.7045 62.6 34.9845 63.7467 35.8645 65.24C36.7445 66.7067 37.1845 68.4533 37.1845 70.48C37.1845 71.68 36.9979 72.8933 36.6245 74.12C36.2779 75.32 35.7045 76.4133 34.9045 77.4C34.1312 78.3867 33.0779 79.1867 31.7445 79.8C30.4379 80.3867 28.8245 80.68 26.9045 80.68H22.7445V90H16.9445V60.56H25.8645ZM26.8645 75.04C27.7445 75.04 28.4779 74.8933 29.0645 74.6C29.6512 74.28 30.1045 73.8933 30.4245 73.44C30.7712 72.96 31.0112 72.4667 31.1445 71.96C31.3045 71.4533 31.3845 71.0133 31.3845 70.64C31.3845 70.3467 31.3312 69.96 31.2245 69.48C31.1445 68.9733 30.9579 68.4667 30.6645 67.96C30.3712 67.4533 29.9179 67.0267 29.3045 66.68C28.7179 66.3333 27.9179 66.16 26.9045 66.16H22.7445V75.04H26.8645ZM36.0855 90L49.3655 59.4H49.6855L62.9655 90H56.2455L47.7655 68.48L51.9655 65.6L41.8055 90H36.0855ZM45.1655 79.36H54.0055L56.0455 84.24H43.3655L45.1655 79.36ZM82.977 67.68C81.857 67.0667 80.7104 66.56 79.537 66.16C78.3904 65.76 77.3104 65.56 76.297 65.56C75.0437 65.56 74.057 65.8133 73.337 66.32C72.617 66.8267 72.257 67.5867 72.257 68.6C72.257 69.2933 72.5237 69.92 73.057 70.48C73.617 71.0133 74.3237 71.4933 75.177 71.92C76.057 72.3467 76.9637 72.7333 77.897 73.08C78.7504 73.4 79.5904 73.7867 80.417 74.24C81.2704 74.6667 82.0304 75.2133 82.697 75.88C83.3637 76.52 83.897 77.3333 84.297 78.32C84.697 79.28 84.897 80.4667 84.897 81.88C84.897 83.3733 84.5104 84.76 83.737 86.04C82.9637 87.32 81.8304 88.36 80.337 89.16C78.8437 89.9333 77.0037 90.32 74.817 90.32C73.697 90.32 72.5504 90.2133 71.377 90C70.2304 89.76 69.097 89.4133 67.977 88.96C66.857 88.48 65.777 87.88 64.737 87.16L67.297 82.64C67.9904 83.1467 68.737 83.6 69.537 84C70.3637 84.3733 71.1904 84.6667 72.017 84.88C72.8437 85.0933 73.6037 85.2 74.297 85.2C74.9904 85.2 75.6837 85.1067 76.377 84.92C77.097 84.7067 77.6837 84.36 78.137 83.88C78.617 83.4 78.857 82.7333 78.857 81.88C78.857 81.2933 78.657 80.76 78.257 80.28C77.8837 79.8 77.3637 79.36 76.697 78.96C76.057 78.56 75.3504 78.2133 74.577 77.92C73.6704 77.5733 72.737 77.1733 71.777 76.72C70.817 76.2667 69.9104 75.72 69.057 75.08C68.2304 74.4133 67.5504 73.6 67.017 72.64C66.5104 71.6533 66.257 70.4533 66.257 69.04C66.257 67.3333 66.6304 65.8533 67.377 64.6C68.1504 63.3467 69.2304 62.36 70.617 61.64C72.0037 60.8933 73.6037 60.48 75.417 60.4C77.7904 60.4 79.7104 60.68 81.177 61.24C82.6704 61.8 84.0037 62.4667 85.177 63.24L82.977 67.68ZM88.5773 60.56H108.417V66.16H101.257V90H95.4573V66.16H88.5773V60.56ZM114.015 60.56H134.095V66.16H119.815V72.44H132.455V78.04H119.815V84.4H134.655V90H114.015V60.56Z" fill="#243CA0"/>
</svg>
