<svg width="150" height="150" viewBox="0 0 150 150" fill="none" xmlns="http://www.w3.org/2000/svg">
<circle cx="75" cy="75" r="73.5" fill="#84694E" fill-opacity="0.3" stroke="#84694E" stroke-width="3"/>
<path d="M75.6356 51C75.6356 46.8579 72.2777 43.5 68.1356 43.5C63.9935 43.5 60.6356 46.8579 60.6356 51H75.6356ZM60.6356 51L60.6356 69.5139H75.6356V51H60.6356ZM48.1356 82.0139H30.9661V97.0139H48.1356V82.0139ZM60.6356 69.5139C60.6356 76.4175 55.0392 82.0139 48.1356 82.0139V97.0139C63.3234 97.0139 75.6356 84.7017 75.6356 69.5139H60.6356Z" fill="#84694E"/>
<path d="M101.568 51C101.568 46.8579 98.2099 43.5 94.0678 43.5C89.9257 43.5 86.5678 46.8579 86.5678 51H101.568ZM86.5678 51V69.5139H101.568V51H86.5678ZM74.0678 82.0139H43.0678V97.0139H74.0678V82.0139ZM86.5678 69.5139C86.5678 76.4175 80.9714 82.0139 74.0678 82.0139V97.0139C89.2556 97.0139 101.568 84.7017 101.568 69.5139H86.5678Z" fill="#84694E"/>
<path d="M127.5 51C127.5 46.8579 124.142 43.5 120 43.5C115.858 43.5 112.5 46.8579 112.5 51H127.5ZM112.5 51V69.5139H127.5V51H112.5ZM100 82.0139H69V97.0139H100V82.0139ZM112.5 69.5139C112.5 76.4175 106.904 82.0139 100 82.0139V97.0139C115.188 97.0139 127.5 84.7017 127.5 69.5139H112.5Z" fill="#84694E"/>
<path d="M20.8892 91.2327C19.586 90.4574 19.586 88.5704 20.8892 87.7951L44.7995 73.5706C46.1326 72.7774 47.822 73.7381 47.822 75.2894L47.822 103.738C47.822 105.29 46.1326 106.25 44.7995 105.457L20.8892 91.2327Z" fill="#84694E"/>
</svg>
