<svg width="150" height="150" viewBox="0 0 150 150" fill="none" xmlns="http://www.w3.org/2000/svg">
<circle cx="75" cy="75" r="73.5" fill="#847FB8" fill-opacity="0.3" stroke="#847FB8" stroke-width="3"/>
<rect width="12" height="50" rx="6" transform="matrix(-1 0 0 1 120 63.5669)" fill="#847FB8"/>
<rect width="12" height="38" rx="6" transform="matrix(-1 0 0 1 94 37.5669)" fill="#847FB8"/>
<rect width="12" height="47.559" rx="6" transform="matrix(0.707107 -0.707107 -0.707107 -0.707107 113.515 77.1146)" fill="#847FB8"/>
<rect width="12" height="87" rx="6" transform="matrix(0 -1 -1 0 120 113.567)" fill="#847FB8"/>
<rect width="12" height="38" rx="6" transform="matrix(0 -1 -1 0 120 75.5669)" fill="#847FB8"/>
<rect width="12" height="61" rx="6" transform="matrix(0 -1 -1 0 94 49.5669)" fill="#847FB8"/>
<rect width="12" height="76" rx="6" transform="matrix(-1 0 0 1 45 37.5669)" fill="#847FB8"/>
</svg>
