<svg width="559" height="150" viewBox="0 0 559 150" fill="none" xmlns="http://www.w3.org/2000/svg">
<path d="M557.5 75C557.5 85.4226 557.474 94.9276 553.284 103.537C549.136 112.06 540.77 119.933 523.519 126.635C488.884 140.09 419.288 148.5 279.5 148.5C139.712 148.5 70.1164 140.09 35.4807 126.635C18.2302 119.933 9.86394 112.06 5.71592 103.537C1.52565 94.9276 1.5 85.4226 1.5 75C1.5 64.5774 1.52565 55.0724 5.71592 46.4631C9.86394 37.9405 18.2302 30.0666 35.4807 23.3652C70.1164 9.91008 139.712 1.5 279.5 1.5C419.288 1.5 488.884 9.91008 523.519 23.3652C540.77 30.0666 549.136 37.9405 553.284 46.4631C557.474 55.0724 557.5 64.5774 557.5 75Z" fill="#ECA63D" fill-opacity="0.85098" stroke="#8E5704" stroke-width="3"/>
<rect x="43" y="85.2131" width="21.2132" height="90" rx="10.6066" transform="rotate(-90 43 85.2131)" fill="#8E5704"/>
<path d="M152.525 102C151.441 102 150.65 101.751 150.152 101.253C149.654 100.755 149.405 99.9639 149.405 98.8799V50.4082C149.405 49.3242 149.654 48.5479 150.152 48.0791C150.65 47.5811 151.441 47.332 152.525 47.332H181.134C181.954 47.332 182.54 47.6396 182.892 48.2549C183.272 48.8701 183.463 49.8662 183.463 51.2432V53.6162C183.463 54.9932 183.272 55.9893 182.892 56.6045C182.54 57.2197 181.954 57.5273 181.134 57.5273H161.446V68.8652H179.024C179.845 68.8652 180.431 69.1729 180.782 69.7881C181.163 70.4033 181.354 71.3994 181.354 72.7764V75.1934C181.354 76.5703 181.163 77.5664 180.782 78.1816C180.431 78.7969 179.845 79.1045 179.024 79.1045H161.446V91.7607H181.178C181.998 91.7607 182.584 92.0684 182.936 92.6836C183.316 93.2988 183.507 94.2803 183.507 95.6279V98.0889C183.507 99.4658 183.316 100.462 182.936 101.077C182.584 101.692 181.998 102 181.178 102H152.525ZM196.251 102.132C193.146 102.132 191.593 101.312 191.593 99.6709V74.8857C191.593 71.1357 191.344 68.0156 190.846 65.5254C190.699 64.7344 190.626 64.1777 190.626 63.8555C190.626 63.2695 191.168 62.8008 192.252 62.4492C193.365 62.0684 194.61 61.79 195.987 61.6143C197.394 61.4385 198.521 61.3506 199.371 61.3506C200.279 61.3506 200.909 61.6875 201.261 62.3613C201.642 63.0352 201.979 64.0166 202.271 65.3057L202.535 66.4482C203.766 64.8076 205.406 63.416 207.457 62.2734C209.537 61.1016 211.764 60.5156 214.137 60.5156C218.062 60.5156 220.963 61.541 222.838 63.5918C224.713 65.6426 225.65 68.8213 225.65 73.1279V99.6709C225.65 101.312 224.068 102.132 220.904 102.132H218.751C215.646 102.132 214.093 101.312 214.093 99.6709V74.8857C214.093 73.3037 213.712 72.1025 212.95 71.2822C212.218 70.4619 211.017 70.0518 209.347 70.0518C207.94 70.0518 206.695 70.5205 205.611 71.458C204.527 72.3955 203.707 73.4355 203.15 74.5781V99.6709C203.15 101.312 201.568 102.132 198.404 102.132H196.251ZM250.699 118.567C238.307 118.567 232.11 114.964 232.11 107.757C232.11 105.735 232.711 103.948 233.912 102.396C235.143 100.843 236.915 99.6123 239.229 98.7041L239.273 98.3965C238.219 97.8398 237.398 97.0488 236.812 96.0234C236.227 94.998 235.934 93.8408 235.934 92.5518C235.934 91.2334 236.329 90.0176 237.12 88.9043C237.94 87.791 239.112 86.8389 240.636 86.0479C238.644 84.9346 237.076 83.4111 235.934 81.4775C234.82 79.5439 234.264 77.1855 234.264 74.4023C234.264 69.6562 235.802 66.1553 238.878 63.8994C241.983 61.6436 246.056 60.5156 251.095 60.5156C253.204 60.5156 255.211 60.7207 257.115 61.1309H269.684C270.504 61.1309 271.104 61.4531 271.485 62.0977C271.866 62.7129 272.057 63.6943 272.057 65.042V66.3604C272.057 68.8213 271.427 70.0518 270.167 70.0518C269.728 70.0518 269.127 70.0225 268.365 69.9639C267.633 69.9053 267.105 69.832 266.783 69.7441L266.651 70.0518C267.003 70.5205 267.296 71.1797 267.53 72.0293C267.765 72.8496 267.882 73.6406 267.882 74.4023C267.882 79.0605 266.417 82.5322 263.487 84.8174C260.558 87.0732 256.72 88.2012 251.974 88.2012C248.78 88.2012 247.184 88.9189 247.184 90.3545C247.184 90.999 247.506 91.5117 248.15 91.8926C248.795 92.2441 249.615 92.5225 250.611 92.7275C251.637 92.9326 253.087 93.1523 254.962 93.3867C256.31 93.5332 257.569 93.709 258.741 93.9141C262.433 94.6465 265.377 95.8477 267.574 97.5176C269.771 99.1582 270.87 101.751 270.87 105.296C270.87 107.962 270.035 110.291 268.365 112.283C266.695 114.275 264.337 115.813 261.29 116.897C258.243 118.011 254.713 118.567 250.699 118.567ZM251.095 79.8955C252.823 79.8955 254.229 79.4414 255.313 78.5332C256.427 77.625 256.983 76.248 256.983 74.4023C256.983 72.5566 256.427 71.1797 255.313 70.2715C254.229 69.334 252.823 68.8652 251.095 68.8652C249.366 68.8652 247.945 69.334 246.832 70.2715C245.748 71.1797 245.206 72.5566 245.206 74.4023C245.206 76.248 245.748 77.625 246.832 78.5332C247.945 79.4414 249.366 79.8955 251.095 79.8955ZM251.578 109.427C254.215 109.427 256.207 109.09 257.555 108.416C258.932 107.742 259.62 106.805 259.62 105.604C259.62 104.783 259.225 104.124 258.434 103.626C257.672 103.157 256.427 102.762 254.698 102.439C252.999 102.146 250.611 101.897 247.535 101.692C246.217 102.161 245.191 102.776 244.459 103.538C243.727 104.3 243.36 105.091 243.36 105.911C243.36 107.024 244.034 107.889 245.382 108.504C246.729 109.119 248.795 109.427 251.578 109.427ZM282.472 102.132C279.366 102.132 277.813 101.312 277.813 99.6709V74.8857C277.813 71.1357 277.564 68.0156 277.066 65.5254C276.92 64.7344 276.847 64.1777 276.847 63.8555C276.847 63.2695 277.389 62.8008 278.473 62.4492C279.586 62.0684 280.831 61.79 282.208 61.6143C283.614 61.4385 284.742 61.3506 285.592 61.3506C286.5 61.3506 287.13 61.6875 287.481 62.3613C287.862 63.0352 288.199 64.0166 288.492 65.3057L288.756 66.4482C289.752 64.6318 290.895 63.1963 292.184 62.1416C293.502 61.0576 295.187 60.5156 297.237 60.5156C298.937 60.5156 300.108 60.9551 300.753 61.834C301.397 62.6836 301.72 63.6504 301.72 64.7344C301.72 65.3203 301.617 66.1553 301.412 67.2393C301.207 68.2939 300.914 69.2314 300.533 70.0518C300.152 70.8721 299.728 71.2822 299.259 71.2822C298.937 71.2822 298.453 71.1943 297.809 71.0186C296.93 70.7842 296.183 70.667 295.567 70.667C294.132 70.667 292.872 71.0771 291.788 71.8975C290.733 72.6885 289.928 73.582 289.371 74.5781V99.6709C289.371 101.312 287.789 102.132 284.625 102.132H282.472ZM316.354 102.659C312.369 102.659 309.439 101.619 307.564 99.5391C305.719 97.4297 304.796 94.6465 304.796 91.1895C304.796 88.582 305.338 86.2383 306.422 84.1582C307.506 82.0488 309.703 80.2764 313.014 78.8408C316.324 77.4053 321.056 76.6875 327.208 76.6875V74.0947C327.208 72.5713 326.725 71.4434 325.758 70.7109C324.791 69.9785 323.253 69.6123 321.144 69.6123C319.386 69.6123 317.877 69.8027 316.617 70.1836C315.357 70.5352 313.995 71.0186 312.53 71.6338C311.769 71.9854 311.3 72.1611 311.124 72.1611C310.597 72.1611 310.011 71.7656 309.366 70.9746C308.751 70.1836 308.209 69.2754 307.74 68.25C307.271 67.2246 307.037 66.4482 307.037 65.9209C307.037 65.0127 307.682 64.1484 308.971 63.3281C310.289 62.4785 312.091 61.8047 314.376 61.3066C316.661 60.7793 319.195 60.5156 321.979 60.5156C327.838 60.5156 332.101 61.6875 334.767 64.0312C337.433 66.3457 338.766 69.5244 338.766 73.5674V88.2012C338.766 90.6328 338.824 92.5225 338.941 93.8701C339.088 95.2178 339.278 96.5508 339.513 97.8691C339.659 98.6602 339.732 99.2168 339.732 99.5391C339.732 100.125 339.176 100.608 338.062 100.989C336.979 101.37 335.733 101.648 334.327 101.824C332.921 102 331.793 102.088 330.943 102.088C330.035 102.088 329.376 101.707 328.966 100.945C328.585 100.154 328.277 99.085 328.043 97.7373C328.014 97.5615 327.984 97.3857 327.955 97.21C327.926 97.0342 327.882 96.8584 327.823 96.6826C327.53 97.2393 326.9 97.9863 325.934 98.9238C324.996 99.8613 323.707 100.726 322.066 101.517C320.426 102.278 318.521 102.659 316.354 102.659ZM320.177 93.4746C321.642 93.4746 323.019 93.0205 324.308 92.1123C325.597 91.1748 326.563 89.9883 327.208 88.5527V84.2461C319.913 84.2461 316.266 86.165 316.266 90.0029C316.266 91.0283 316.603 91.8633 317.276 92.5078C317.979 93.1523 318.946 93.4746 320.177 93.4746ZM361.793 102.132C360.562 102.132 359.566 102.015 358.805 101.78C358.072 101.546 357.604 101.121 357.398 100.506L345.006 64.1191C344.977 63.9434 344.918 63.709 344.83 63.416C344.742 63.0938 344.698 62.8594 344.698 62.7129C344.698 62.127 345.079 61.7021 345.841 61.4385C346.603 61.1455 347.804 60.999 349.444 60.999H351.993C353.253 60.999 354.264 61.1309 355.025 61.3945C355.787 61.6289 356.256 62.0391 356.432 62.625L361.002 77.0391C361.148 77.5664 361.603 79.4707 362.364 82.752L363.199 86.4873H363.551C364.459 81.8877 365.177 78.7383 365.704 77.0391L370.318 62.625C370.494 62.0391 370.948 61.6289 371.681 61.3945C372.442 61.1309 373.453 60.999 374.713 60.999H376.646C378.258 60.999 379.43 61.1455 380.162 61.4385C380.924 61.7021 381.305 62.127 381.305 62.7129C381.305 63.1816 381.231 63.6504 381.085 64.1191L368.648 100.506C368.473 101.092 368.004 101.517 367.242 101.78C366.51 102.015 365.528 102.132 364.298 102.132H361.793ZM391.324 54.4072C389.684 54.4072 388.482 54.2021 387.721 53.792C386.988 53.3818 386.622 52.752 386.622 51.9023V45.6182C386.622 44.7686 387.003 44.1387 387.765 43.7285C388.526 43.2891 389.713 43.0693 391.324 43.0693H393.478C395.089 43.0693 396.275 43.2891 397.037 43.7285C397.799 44.1387 398.18 44.7686 398.18 45.6182V51.9023C398.18 52.752 397.799 53.3818 397.037 53.792C396.305 54.2021 395.118 54.4072 393.478 54.4072H391.324ZM391.324 102.132C388.189 102.132 386.622 101.312 386.622 99.6709V63.46C386.622 62.6396 387.003 62.0244 387.765 61.6143C388.526 61.2041 389.713 60.999 391.324 60.999H393.478C395.089 60.999 396.275 61.2041 397.037 61.6143C397.799 62.0244 398.18 62.6396 398.18 63.46V99.6709C398.18 101.312 396.612 102.132 393.478 102.132H391.324ZM412.286 102.132C409.181 102.132 407.628 101.312 407.628 99.6709V74.8857C407.628 71.1357 407.379 68.0156 406.881 65.5254C406.734 64.7344 406.661 64.1777 406.661 63.8555C406.661 63.2695 407.203 62.8008 408.287 62.4492C409.4 62.0684 410.646 61.79 412.022 61.6143C413.429 61.4385 414.557 61.3506 415.406 61.3506C416.314 61.3506 416.944 61.6875 417.296 62.3613C417.677 63.0352 418.014 64.0166 418.307 65.3057L418.57 66.4482C419.801 64.8076 421.441 63.416 423.492 62.2734C425.572 61.1016 427.799 60.5156 430.172 60.5156C434.098 60.5156 436.998 61.541 438.873 63.5918C440.748 65.6426 441.686 68.8213 441.686 73.1279V99.6709C441.686 101.312 440.104 102.132 436.939 102.132H434.786C431.681 102.132 430.128 101.312 430.128 99.6709V74.8857C430.128 73.3037 429.747 72.1025 428.985 71.2822C428.253 70.4619 427.052 70.0518 425.382 70.0518C423.976 70.0518 422.73 70.5205 421.646 71.458C420.562 72.3955 419.742 73.4355 419.186 74.5781V99.6709C419.186 101.312 417.604 102.132 414.439 102.132H412.286ZM466.734 118.567C454.342 118.567 448.146 114.964 448.146 107.757C448.146 105.735 448.746 103.948 449.947 102.396C451.178 100.843 452.95 99.6123 455.265 98.7041L455.309 98.3965C454.254 97.8398 453.434 97.0488 452.848 96.0234C452.262 94.998 451.969 93.8408 451.969 92.5518C451.969 91.2334 452.364 90.0176 453.155 88.9043C453.976 87.791 455.147 86.8389 456.671 86.0479C454.679 84.9346 453.111 83.4111 451.969 81.4775C450.855 79.5439 450.299 77.1855 450.299 74.4023C450.299 69.6562 451.837 66.1553 454.913 63.8994C458.019 61.6436 462.091 60.5156 467.13 60.5156C469.239 60.5156 471.246 60.7207 473.15 61.1309H485.719C486.539 61.1309 487.14 61.4531 487.521 62.0977C487.901 62.7129 488.092 63.6943 488.092 65.042V66.3604C488.092 68.8213 487.462 70.0518 486.202 70.0518C485.763 70.0518 485.162 70.0225 484.4 69.9639C483.668 69.9053 483.141 69.832 482.818 69.7441L482.687 70.0518C483.038 70.5205 483.331 71.1797 483.565 72.0293C483.8 72.8496 483.917 73.6406 483.917 74.4023C483.917 79.0605 482.452 82.5322 479.522 84.8174C476.593 87.0732 472.755 88.2012 468.009 88.2012C464.815 88.2012 463.219 88.9189 463.219 90.3545C463.219 90.999 463.541 91.5117 464.186 91.8926C464.83 92.2441 465.65 92.5225 466.646 92.7275C467.672 92.9326 469.122 93.1523 470.997 93.3867C472.345 93.5332 473.604 93.709 474.776 93.9141C478.468 94.6465 481.412 95.8477 483.609 97.5176C485.807 99.1582 486.905 101.751 486.905 105.296C486.905 107.962 486.07 110.291 484.4 112.283C482.73 114.275 480.372 115.813 477.325 116.897C474.278 118.011 470.748 118.567 466.734 118.567ZM467.13 79.8955C468.858 79.8955 470.265 79.4414 471.349 78.5332C472.462 77.625 473.019 76.248 473.019 74.4023C473.019 72.5566 472.462 71.1797 471.349 70.2715C470.265 69.334 468.858 68.8652 467.13 68.8652C465.401 68.8652 463.98 69.334 462.867 70.2715C461.783 71.1797 461.241 72.5566 461.241 74.4023C461.241 76.248 461.783 77.625 462.867 78.5332C463.98 79.4414 465.401 79.8955 467.13 79.8955ZM467.613 109.427C470.25 109.427 472.242 109.09 473.59 108.416C474.967 107.742 475.655 106.805 475.655 105.604C475.655 104.783 475.26 104.124 474.469 103.626C473.707 103.157 472.462 102.762 470.733 102.439C469.034 102.146 466.646 101.897 463.57 101.692C462.252 102.161 461.227 102.776 460.494 103.538C459.762 104.3 459.396 105.091 459.396 105.911C459.396 107.024 460.069 107.889 461.417 108.504C462.765 109.119 464.83 109.427 467.613 109.427Z" fill="#8E5704"/>
</svg>
