<svg width="150" height="150" viewBox="0 0 150 150" fill="none" xmlns="http://www.w3.org/2000/svg">
<circle cx="75" cy="75" r="71.5" stroke="#2B50E7" stroke-width="7"/>
<mask id="path-2-inside-1_217_40" fill="white">
<path d="M106.459 42.8198C124.033 60.3934 124.033 88.8858 106.459 106.459C88.8858 124.033 60.3934 124.033 42.8198 106.459C25.2462 88.8858 25.2462 60.3934 42.8198 42.8198C60.3934 25.2462 88.8858 25.2462 106.459 42.8198ZM58.7297 90.5495C67.5165 99.3363 81.7627 99.3363 90.5495 90.5495C99.3363 81.7627 99.3363 67.5165 90.5495 58.7297C81.7627 49.9429 67.5165 49.9429 58.7297 58.7297C49.9429 67.5165 49.9429 81.7627 58.7297 90.5495Z"/>
</mask>
<path d="M106.459 42.8198C124.033 60.3934 124.033 88.8858 106.459 106.459C88.8858 124.033 60.3934 124.033 42.8198 106.459C25.2462 88.8858 25.2462 60.3934 42.8198 42.8198C60.3934 25.2462 88.8858 25.2462 106.459 42.8198ZM58.7297 90.5495C67.5165 99.3363 81.7627 99.3363 90.5495 90.5495C99.3363 81.7627 99.3363 67.5165 90.5495 58.7297C81.7627 49.9429 67.5165 49.9429 58.7297 58.7297C49.9429 67.5165 49.9429 81.7627 58.7297 90.5495Z" stroke="#2B50E7" stroke-width="60" mask="url(#path-2-inside-1_217_40)"/>
<rect x="63" y="102" width="25" height="30" rx="7" fill="#2B50E7"/>
<rect x="63" y="17" width="25" height="30" rx="7" fill="#2B50E7"/>
<rect x="110" y="87" width="25" height="23" rx="7" transform="rotate(-90 110 87)" fill="#2B50E7"/>
<rect x="18" y="87" width="25" height="26" rx="7" transform="rotate(-90 18 87)" fill="#2B50E7"/>
<rect x="26.0026" y="42.6802" width="25" height="23.0243" rx="7" transform="rotate(-45 26.0026 42.6802)" fill="#2B50E7"/>
<rect x="84.8617" y="101.539" width="25" height="31.7607" rx="7" transform="rotate(-45 84.8617 101.539)" fill="#2B50E7"/>
<rect x="104.481" y="63.1968" width="25" height="29.0148" rx="7" transform="rotate(-135 104.481 63.1968)" fill="#2B50E7"/>
<rect x="43.6802" y="123.997" width="25" height="25.5759" rx="7" transform="rotate(-135 43.6802 123.997)" fill="#2B50E7"/>
</svg>
