<svg width="150" height="150" viewBox="0 0 150 150" fill="none" xmlns="http://www.w3.org/2000/svg">
<rect x="71" y="30" width="8" height="94" rx="4" fill="#808080"/>
<rect x="29" y="65" width="8" height="91" rx="4" transform="rotate(-90 29 65)" fill="#808080"/>
<rect x="29" y="97" width="8" height="91" rx="4" transform="rotate(-90 29 97)" fill="#808080"/>
<circle cx="75" cy="77" r="46" stroke="#808080" stroke-width="8"/>
<path d="M101 77C101 90.2068 97.7799 101.97 92.7832 110.297C87.7388 118.705 81.3272 123 75 123C68.6728 123 62.2612 118.705 57.2168 110.297C52.2201 101.97 49 90.2068 49 77C49 63.7932 52.2201 52.0304 57.2168 43.7026C62.2612 35.2953 68.6728 31 75 31C81.3272 31 87.7388 35.2953 92.7832 43.7026C97.7799 52.0304 101 63.7932 101 77Z" stroke="#808080" stroke-width="8"/>
</svg>
