<svg width="99" height="77" viewBox="0 0 99 77" fill="none" xmlns="http://www.w3.org/2000/svg">
<mask id="mask0_239_44" style="mask-type:luminance" maskUnits="userSpaceOnUse" x="0" y="0" width="99" height="77">
<path fill-rule="evenodd" clip-rule="evenodd" d="M64.35 43.3858C64.35 40.5255 63.4791 37.7294 61.8473 35.3512C60.2156 32.9729 57.8963 31.1193 55.1828 30.0247C52.4694 28.9301 49.4835 28.6437 46.6029 29.2017C43.7223 29.7598 41.0763 31.1371 38.9995 33.1597C36.9227 35.1822 35.5083 37.7591 34.9353 40.5644C34.3623 43.3698 34.6564 46.2776 35.7804 48.9201C36.9043 51.5627 38.8077 53.8214 41.2498 55.4104C43.6918 56.9995 46.5629 57.8477 49.5 57.8477C53.4385 57.8477 57.2156 56.3241 60.0005 53.6119C62.7855 50.8998 64.35 47.2213 64.35 43.3858ZM49.5 67.489C44.6049 67.489 39.8198 66.0754 35.7496 63.4269C31.6795 60.7784 28.5072 57.014 26.634 52.6097C24.7607 48.2054 24.2706 43.3591 25.2256 38.6835C26.1805 34.0079 28.5378 29.7131 31.9991 26.3422C35.4605 22.9714 39.8705 20.6757 44.6715 19.7457C49.4725 18.8157 54.4489 19.293 58.9714 21.1173C63.4939 22.9416 67.3593 26.031 70.0789 29.9948C72.7984 33.9585 74.25 38.6186 74.25 43.3858C74.25 49.7784 71.6424 55.9091 67.0009 60.4293C62.3594 64.9496 56.0641 67.489 49.5 67.489ZM31.779 2.69957L28.4625 5.78478C26.6273 7.50749 24.1804 8.47445 21.6315 8.48434H9.9C7.44186 8.33849 5.0238 9.14243 3.17043 10.7218C1.31706 12.3011 0.177864 14.5284 0 16.9205L0 67.73C0.165422 70.1307 1.29924 72.3702 3.154 73.9598C5.00876 75.5493 7.43386 76.3598 9.9 76.2144H89.1C91.5661 76.3598 93.9912 75.5493 95.846 73.9598C97.7008 72.3702 98.8346 70.1307 99 67.73V16.9205C98.8346 14.5198 97.7008 12.2803 95.846 10.6907C93.9912 9.10119 91.5661 8.2907 89.1 8.43613H77.3685C74.8195 8.42625 72.3727 7.45928 70.5375 5.73657L67.221 2.65136C65.378 0.946252 62.9321 -0.0030878 60.39 7.54557e-06H38.61C36.0611 0.00989301 33.6142 0.976855 31.779 2.69957Z" fill="white"/>
</mask>
<g mask="url(#mask0_239_44)">
<path d="M0 -9.64124H99V86.7716H0V-9.64124Z" fill="#0A6F01"/>
</g>
</svg>
