<svg width="1330" height="1330" viewBox="0 0 1330 1330" fill="none" xmlns="http://www.w3.org/2000/svg">
<circle cx="665" cy="665" r="651.7" fill="#858BA5" fill-opacity="0.85" stroke="#5A5E6B" stroke-width="26.6"/>
<rect x="502.605" y="218" width="18.6826" height="511.617" rx="9.34132" fill="#686E83"/>
<ellipse cx="98.2392" cy="68.4904" rx="98.2392" ry="68.4904" transform="matrix(0.881428 -0.472319 0.528201 0.849119 305 739.064)" fill="#686E83"/>
<path d="M595.299 372.491C554.694 338.512 522.442 235.966 520.928 224.826C519.414 213.687 520.928 378.24 520.928 378.24C648.205 433.843 671 500.969 607.874 675.725C646.645 619.662 661.51 586.388 665 520.874C664.232 456.939 647.606 424.76 595.299 372.491Z" fill="#686E83"/>
<path d="M543.676 1149C612.722 1089.13 686.226 1034.16 763.314 984.442C817.444 949.53 669.18 1072.33 615.838 1108.37C576.726 1134.8 680.914 1039.44 720.578 1013.8C778.37 976.45 607.429 1092.03 549.281 1128.86C534.506 1138.21 489.084 1163.96 535.444 1137.05C583.461 1109.18 632.881 1083.38 680.118 1054.26C693.562 1045.97 703.75 1036.32 713.747 1024.39C730.654 1004.2 735.732 992.389 761.212 983.076" stroke="#5A5E6B" stroke-width="58" stroke-linecap="round"/>
<path d="M713.922 989.221C644.17 1002.1 576.612 1039.99 518.104 1078.33C515.875 1079.79 510.027 1084.57 512.675 1084.13C526.47 1081.84 539.715 1077.08 553.134 1073.21C615.392 1055.25 673.662 1032.95 732.838 1007.66" stroke="#5A5E6B" stroke-width="58" stroke-linecap="round"/>
<path d="M780.129 976.931C777.696 901.051 769.039 826.222 770.67 749.894C772.836 648.593 789.63 547.826 797.644 446.895C802.693 383.294 802.197 319.61 802.197 255.878C802.197 226.87 799.266 196.313 802.197 167.453C802.984 159.714 805.804 163.388 809.203 168.477C828.014 196.638 843.579 228.218 859.121 258.097C894.988 327.048 901.476 399.668 922 473.013" stroke="#5A5E6B" stroke-width="58" stroke-linecap="round"/>
</svg>
