<svg width="616" height="150" viewBox="0 0 616 150" fill="none" xmlns="http://www.w3.org/2000/svg">
<path d="M614.5 75C614.5 85.4247 614.471 94.8984 609.866 103.484C605.297 112.002 596.061 119.899 577.001 126.618C538.781 140.092 462.036 148.5 308 148.5C153.964 148.5 77.2193 140.092 38.9987 126.618C19.9386 119.899 10.7026 112.002 6.13438 103.484C1.52935 94.8984 1.5 85.4247 1.5 75C1.5 64.5754 1.52935 55.1016 6.13438 46.5156C10.7026 37.9982 19.9386 30.1009 38.9987 23.3817C77.2193 9.90784 153.964 1.5 308 1.5C462.036 1.5 538.781 9.90784 577.001 23.3817C596.061 30.1009 605.297 37.9982 609.866 46.5156C614.471 55.1016 614.5 64.5754 614.5 75Z" fill="#ECA63D" fill-opacity="0.85098" stroke="#8E5704" stroke-width="3"/>
<rect x="43" y="85.2131" width="21.2132" height="90" rx="10.6066" transform="rotate(-90 43 85.2131)" fill="#8E5704"/>
<path d="M154.25 102.132C151.145 102.132 149.592 101.312 149.592 99.6709V49.6611C149.592 48.8115 149.958 48.1816 150.69 47.7715C151.452 47.332 152.639 47.1123 154.25 47.1123H157.019C158.63 47.1123 159.802 47.332 160.534 47.7715C161.296 48.1816 161.677 48.8115 161.677 49.6611V68.9531H182.771V49.6611C182.771 48.8115 183.151 48.1816 183.913 47.7715C184.675 47.332 185.861 47.1123 187.473 47.1123H190.197C193.332 47.1123 194.899 47.9619 194.899 49.6611V99.6709C194.899 101.312 193.332 102.132 190.197 102.132H187.473C184.338 102.132 182.771 101.312 182.771 99.6709V79.2803H161.677V99.6709C161.677 101.312 160.124 102.132 157.019 102.132H154.25ZM215.158 102.659C211.174 102.659 208.244 101.619 206.369 99.5391C204.523 97.4297 203.601 94.6465 203.601 91.1895C203.601 88.582 204.143 86.2383 205.227 84.1582C206.311 82.0488 208.508 80.2764 211.818 78.8408C215.129 77.4053 219.86 76.6875 226.013 76.6875V74.0947C226.013 72.5713 225.529 71.4434 224.562 70.7109C223.596 69.9785 222.058 69.6123 219.948 69.6123C218.19 69.6123 216.682 69.8027 215.422 70.1836C214.162 70.5352 212.8 71.0186 211.335 71.6338C210.573 71.9854 210.104 72.1611 209.929 72.1611C209.401 72.1611 208.815 71.7656 208.171 70.9746C207.556 70.1836 207.014 69.2754 206.545 68.25C206.076 67.2246 205.842 66.4482 205.842 65.9209C205.842 65.0127 206.486 64.1484 207.775 63.3281C209.094 62.4785 210.896 61.8047 213.181 61.3066C215.466 60.7793 218 60.5156 220.783 60.5156C226.643 60.5156 230.905 61.6875 233.571 64.0312C236.237 66.3457 237.57 69.5244 237.57 73.5674V88.2012C237.57 90.6328 237.629 92.5225 237.746 93.8701C237.893 95.2178 238.083 96.5508 238.317 97.8691C238.464 98.6602 238.537 99.2168 238.537 99.5391C238.537 100.125 237.98 100.608 236.867 100.989C235.783 101.37 234.538 101.648 233.132 101.824C231.726 102 230.598 102.088 229.748 102.088C228.84 102.088 228.181 101.707 227.771 100.945C227.39 100.154 227.082 99.085 226.848 97.7373C226.818 97.5615 226.789 97.3857 226.76 97.21C226.73 97.0342 226.687 96.8584 226.628 96.6826C226.335 97.2393 225.705 97.9863 224.738 98.9238C223.801 99.8613 222.512 100.726 220.871 101.517C219.23 102.278 217.326 102.659 215.158 102.659ZM218.981 93.4746C220.446 93.4746 221.823 93.0205 223.112 92.1123C224.401 91.1748 225.368 89.9883 226.013 88.5527V84.2461C218.718 84.2461 215.07 86.165 215.07 90.0029C215.07 91.0283 215.407 91.8633 216.081 92.5078C216.784 93.1523 217.751 93.4746 218.981 93.4746ZM252.468 102.132C249.362 102.132 247.81 101.312 247.81 99.6709V74.8857C247.81 71.1357 247.561 68.0156 247.062 65.5254C246.916 64.7344 246.843 64.1777 246.843 63.8555C246.843 63.2695 247.385 62.8008 248.469 62.4492C249.582 62.0684 250.827 61.79 252.204 61.6143C253.61 61.4385 254.738 61.3506 255.588 61.3506C256.496 61.3506 257.126 61.6875 257.478 62.3613C257.858 63.0352 258.195 64.0166 258.488 65.3057L258.752 66.4482C259.982 64.8076 261.623 63.416 263.674 62.2734C265.754 61.1016 267.98 60.5156 270.354 60.5156C274.279 60.5156 277.18 61.541 279.055 63.5918C280.93 65.6426 281.867 68.8213 281.867 73.1279V99.6709C281.867 101.312 280.285 102.132 277.121 102.132H274.968C271.862 102.132 270.31 101.312 270.31 99.6709V74.8857C270.31 73.3037 269.929 72.1025 269.167 71.2822C268.435 70.4619 267.233 70.0518 265.563 70.0518C264.157 70.0518 262.912 70.5205 261.828 71.458C260.744 72.3955 259.924 73.4355 259.367 74.5781V99.6709C259.367 101.312 257.785 102.132 254.621 102.132H252.468ZM304.367 102.659C301.525 102.659 298.991 101.839 296.765 100.198C294.567 98.5283 292.839 96.1113 291.579 92.9473C290.349 89.7539 289.733 85.9453 289.733 81.5215C289.733 77.2734 290.378 73.5674 291.667 70.4033C292.956 67.2393 294.831 64.8076 297.292 63.1084C299.782 61.3799 302.756 60.5156 306.213 60.5156C309.318 60.5156 311.97 61.3213 314.167 62.9326V45.6182C314.167 43.9189 315.734 43.0693 318.869 43.0693H321.066C322.678 43.0693 323.85 43.2891 324.582 43.7285C325.344 44.1387 325.725 44.7686 325.725 45.6182V88.2012C325.725 90.6328 325.783 92.5225 325.9 93.8701C326.047 95.2178 326.237 96.5508 326.472 97.8691C326.618 98.6602 326.691 99.2168 326.691 99.5391C326.691 100.125 326.135 100.608 325.021 100.989C323.938 101.37 322.692 101.648 321.286 101.824C319.909 102 318.796 102.088 317.946 102.088C317.038 102.088 316.394 101.736 316.013 101.033C315.661 100.33 315.339 99.3047 315.046 97.957L314.782 96.7705C313.845 98.499 312.453 99.9199 310.607 101.033C308.762 102.117 306.682 102.659 304.367 102.659ZM307.795 93.167C310.256 93.167 312.38 91.6289 314.167 88.5527V71.1064C312.321 70.1104 310.505 69.6123 308.718 69.6123C303.854 69.6123 301.423 73.582 301.423 81.5215C301.423 89.2852 303.547 93.167 307.795 93.167ZM346.379 102.132C343.771 102.132 342.321 101.59 342.028 100.506L332.229 64.207C332.111 63.8555 332.053 63.46 332.053 63.0205C332.053 61.6729 333.679 60.999 336.931 60.999C339.04 60.999 340.549 61.1309 341.457 61.3945C342.395 61.6289 342.937 62.0391 343.083 62.625L348.4 83.2354C348.518 83.6455 348.664 84.2607 348.84 85.0811L349.235 86.707C349.558 85.3887 349.88 84.1582 350.202 83.0156L355.168 62.625C355.373 61.541 356.823 60.999 359.519 60.999H361.364C362.536 60.999 363.518 61.1455 364.309 61.4385C365.1 61.7021 365.554 62.0977 365.671 62.625L370.681 83.499C370.71 83.7334 370.827 84.2021 371.032 84.9053L371.428 86.707L372.351 83.2354L377.756 62.625C378.107 61.541 379.646 60.999 382.37 60.999C385.593 60.999 387.204 61.6729 387.204 63.0205C387.204 63.1084 387.146 63.5039 387.028 64.207L377.844 100.506C377.697 101.033 377.229 101.443 376.438 101.736C375.646 102 374.68 102.132 373.537 102.132H369.714C367.136 102.132 365.715 101.59 365.451 100.506L360.661 81.917C360.456 81.1846 360.178 80.0566 359.826 78.5332L358.903 82.0049L354.465 100.506C354.348 101.033 353.894 101.443 353.103 101.736C352.312 102 351.345 102.132 350.202 102.132H346.379ZM398.542 102.132C395.437 102.132 393.884 101.312 393.884 99.6709V74.8857C393.884 71.1357 393.635 68.0156 393.137 65.5254C392.99 64.7344 392.917 64.1777 392.917 63.8555C392.917 63.2695 393.459 62.8008 394.543 62.4492C395.656 62.0684 396.901 61.79 398.278 61.6143C399.685 61.4385 400.812 61.3506 401.662 61.3506C402.57 61.3506 403.2 61.6875 403.552 62.3613C403.933 63.0352 404.27 64.0166 404.562 65.3057L404.826 66.4482C405.822 64.6318 406.965 63.1963 408.254 62.1416C409.572 61.0576 411.257 60.5156 413.308 60.5156C415.007 60.5156 416.179 60.9551 416.823 61.834C417.468 62.6836 417.79 63.6504 417.79 64.7344C417.79 65.3203 417.688 66.1553 417.482 67.2393C417.277 68.2939 416.984 69.2314 416.604 70.0518C416.223 70.8721 415.798 71.2822 415.329 71.2822C415.007 71.2822 414.523 71.1943 413.879 71.0186C413 70.7842 412.253 70.667 411.638 70.667C410.202 70.667 408.942 71.0771 407.858 71.8975C406.804 72.6885 405.998 73.582 405.441 74.5781V99.6709C405.441 101.312 403.859 102.132 400.695 102.132H398.542ZM426.887 54.4072C425.246 54.4072 424.045 54.2021 423.283 53.792C422.551 53.3818 422.185 52.752 422.185 51.9023V45.6182C422.185 44.7686 422.565 44.1387 423.327 43.7285C424.089 43.2891 425.275 43.0693 426.887 43.0693H429.04C430.651 43.0693 431.838 43.2891 432.6 43.7285C433.361 44.1387 433.742 44.7686 433.742 45.6182V51.9023C433.742 52.752 433.361 53.3818 432.6 53.792C431.867 54.2021 430.681 54.4072 429.04 54.4072H426.887ZM426.887 102.132C423.752 102.132 422.185 101.312 422.185 99.6709V63.46C422.185 62.6396 422.565 62.0244 423.327 61.6143C424.089 61.2041 425.275 60.999 426.887 60.999H429.04C430.651 60.999 431.838 61.2041 432.6 61.6143C433.361 62.0244 433.742 62.6396 433.742 63.46V99.6709C433.742 101.312 432.175 102.132 429.04 102.132H426.887ZM455.759 102.659C452.038 102.659 449.196 101.619 447.233 99.5391C445.3 97.4297 444.333 94.2363 444.333 89.959V70.2715H443.103C442.282 70.2715 441.682 69.9639 441.301 69.3486C440.949 68.7334 440.773 67.7373 440.773 66.3604V65.042C440.773 63.665 440.949 62.6689 441.301 62.0537C441.682 61.4385 442.282 61.1309 443.103 61.1309H444.333L445.344 53.7041C445.578 52.0635 446.984 51.2432 449.562 51.2432H452.023C453.371 51.2432 454.353 51.4482 454.968 51.8584C455.612 52.2686 455.935 52.8838 455.935 53.7041V61.1309H459.758C460.578 61.1309 461.164 61.4385 461.516 62.0537C461.896 62.6689 462.087 63.665 462.087 65.042V66.3604C462.087 67.7373 461.896 68.7334 461.516 69.3486C461.164 69.9639 460.578 70.2715 459.758 70.2715H455.935V90.0908C455.935 91.292 456.14 92.1562 456.55 92.6836C456.989 93.2109 457.707 93.4746 458.703 93.4746C458.996 93.4746 459.392 93.4307 459.89 93.3428C460.388 93.2256 460.695 93.167 460.812 93.167C461.281 93.167 461.691 93.5625 462.043 94.3535C462.424 95.1152 462.717 95.9648 462.922 96.9023C463.156 97.8398 463.273 98.4697 463.273 98.792C463.273 101.37 460.769 102.659 455.759 102.659ZM474.436 54.4072C472.795 54.4072 471.594 54.2021 470.832 53.792C470.1 53.3818 469.733 52.752 469.733 51.9023V45.6182C469.733 44.7686 470.114 44.1387 470.876 43.7285C471.638 43.2891 472.824 43.0693 474.436 43.0693H476.589C478.2 43.0693 479.387 43.2891 480.148 43.7285C480.91 44.1387 481.291 44.7686 481.291 45.6182V51.9023C481.291 52.752 480.91 53.3818 480.148 53.792C479.416 54.2021 478.229 54.4072 476.589 54.4072H474.436ZM474.436 102.132C471.301 102.132 469.733 101.312 469.733 99.6709V63.46C469.733 62.6396 470.114 62.0244 470.876 61.6143C471.638 61.2041 472.824 60.999 474.436 60.999H476.589C478.2 60.999 479.387 61.2041 480.148 61.6143C480.91 62.0244 481.291 62.6396 481.291 63.46V99.6709C481.291 101.312 479.724 102.132 476.589 102.132H474.436ZM495.397 102.132C492.292 102.132 490.739 101.312 490.739 99.6709V74.8857C490.739 71.1357 490.49 68.0156 489.992 65.5254C489.846 64.7344 489.772 64.1777 489.772 63.8555C489.772 63.2695 490.314 62.8008 491.398 62.4492C492.512 62.0684 493.757 61.79 495.134 61.6143C496.54 61.4385 497.668 61.3506 498.518 61.3506C499.426 61.3506 500.056 61.6875 500.407 62.3613C500.788 63.0352 501.125 64.0166 501.418 65.3057L501.682 66.4482C502.912 64.8076 504.553 63.416 506.604 62.2734C508.684 61.1016 510.91 60.5156 513.283 60.5156C517.209 60.5156 520.109 61.541 521.984 63.5918C523.859 65.6426 524.797 68.8213 524.797 73.1279V99.6709C524.797 101.312 523.215 102.132 520.051 102.132H517.897C514.792 102.132 513.239 101.312 513.239 99.6709V74.8857C513.239 73.3037 512.858 72.1025 512.097 71.2822C511.364 70.4619 510.163 70.0518 508.493 70.0518C507.087 70.0518 505.842 70.5205 504.758 71.458C503.674 72.3955 502.854 73.4355 502.297 74.5781V99.6709C502.297 101.312 500.715 102.132 497.551 102.132H495.397ZM549.846 118.567C537.453 118.567 531.257 114.964 531.257 107.757C531.257 105.735 531.857 103.948 533.059 102.396C534.289 100.843 536.062 99.6123 538.376 98.7041L538.42 98.3965C537.365 97.8398 536.545 97.0488 535.959 96.0234C535.373 94.998 535.08 93.8408 535.08 92.5518C535.08 91.2334 535.476 90.0176 536.267 88.9043C537.087 87.791 538.259 86.8389 539.782 86.0479C537.79 84.9346 536.223 83.4111 535.08 81.4775C533.967 79.5439 533.41 77.1855 533.41 74.4023C533.41 69.6562 534.948 66.1553 538.024 63.8994C541.13 61.6436 545.202 60.5156 550.241 60.5156C552.351 60.5156 554.357 60.7207 556.262 61.1309H568.83C569.65 61.1309 570.251 61.4531 570.632 62.0977C571.013 62.7129 571.203 63.6943 571.203 65.042V66.3604C571.203 68.8213 570.573 70.0518 569.313 70.0518C568.874 70.0518 568.273 70.0225 567.512 69.9639C566.779 69.9053 566.252 69.832 565.93 69.7441L565.798 70.0518C566.149 70.5205 566.442 71.1797 566.677 72.0293C566.911 72.8496 567.028 73.6406 567.028 74.4023C567.028 79.0605 565.563 82.5322 562.634 84.8174C559.704 87.0732 555.866 88.2012 551.12 88.2012C547.927 88.2012 546.33 88.9189 546.33 90.3545C546.33 90.999 546.652 91.5117 547.297 91.8926C547.941 92.2441 548.762 92.5225 549.758 92.7275C550.783 92.9326 552.233 93.1523 554.108 93.3867C555.456 93.5332 556.716 93.709 557.888 93.9141C561.579 94.6465 564.523 95.8477 566.721 97.5176C568.918 99.1582 570.017 101.751 570.017 105.296C570.017 107.962 569.182 110.291 567.512 112.283C565.842 114.275 563.483 115.813 560.437 116.897C557.39 118.011 553.859 118.567 549.846 118.567ZM550.241 79.8955C551.97 79.8955 553.376 79.4414 554.46 78.5332C555.573 77.625 556.13 76.248 556.13 74.4023C556.13 72.5566 555.573 71.1797 554.46 70.2715C553.376 69.334 551.97 68.8652 550.241 68.8652C548.513 68.8652 547.092 69.334 545.979 70.2715C544.895 71.1797 544.353 72.5566 544.353 74.4023C544.353 76.248 544.895 77.625 545.979 78.5332C547.092 79.4414 548.513 79.8955 550.241 79.8955ZM550.725 109.427C553.361 109.427 555.354 109.09 556.701 108.416C558.078 107.742 558.767 106.805 558.767 105.604C558.767 104.783 558.371 104.124 557.58 103.626C556.818 103.157 555.573 102.762 553.845 102.439C552.146 102.146 549.758 101.897 546.682 101.692C545.363 102.161 544.338 102.776 543.605 103.538C542.873 104.3 542.507 105.091 542.507 105.911C542.507 107.024 543.181 107.889 544.528 108.504C545.876 109.119 547.941 109.427 550.725 109.427Z" fill="#8E5704"/>
</svg>
