<svg width="150" height="150" viewBox="0 0 150 150" fill="none" xmlns="http://www.w3.org/2000/svg">
<g clip-path="url(#clip0_0_1)">
<circle cx="75" cy="75" r="73.5" transform="rotate(-180 75 75)" fill="#A68563" fill-opacity="0.3" stroke="#A68563" stroke-width="3"/>
<path d="M74.3644 99C74.3644 103.142 77.7223 106.5 81.8644 106.5C86.0065 106.5 89.3644 103.142 89.3644 99H74.3644ZM89.3644 99V80.4861H74.3644V99H89.3644ZM101.864 67.9861H119.034V52.9861H101.864V67.9861ZM89.3644 80.4861C89.3644 73.5825 94.9608 67.9861 101.864 67.9861V52.9861C86.6766 52.9861 74.3644 65.2983 74.3644 80.4861H89.3644Z" fill="#A68563"/>
<path d="M48.4322 99C48.4322 103.142 51.7901 106.5 55.9322 106.5C60.0743 106.5 63.4322 103.142 63.4322 99H48.4322ZM63.4322 99V80.4861H48.4322V99H63.4322ZM75.9322 67.9861H106.932V52.9861H75.9322V67.9861ZM63.4322 80.4861C63.4322 73.5825 69.0286 67.9861 75.9322 67.9861V52.9861C60.7444 52.9861 48.4322 65.2983 48.4322 80.4861H63.4322Z" fill="#A68563"/>
<path d="M22.5 99C22.5 103.142 25.8579 106.5 30 106.5C34.1421 106.5 37.5 103.142 37.5 99H22.5ZM37.5 99V80.4861H22.5V99H37.5ZM50 67.9861H81V52.9861H50V67.9861ZM37.5 80.4861C37.5 73.5825 43.0964 67.9861 50 67.9861V52.9861C34.8122 52.9861 22.5 65.2983 22.5 80.4861H37.5Z" fill="#A68563"/>
<path d="M129.111 58.7673C130.414 59.5426 130.414 61.4296 129.111 62.2049L105.201 76.4294C103.867 77.2226 102.178 76.2619 102.178 74.7106V46.2616C102.178 44.7104 103.867 43.7497 105.201 44.5428L129.111 58.7673Z" fill="#A68563"/>
</g>
<defs>
<clipPath id="clip0_0_1">
<rect width="150" height="150" fill="white" transform="matrix(-1 0 0 -1 150 150)"/>
</clipPath>
</defs>
</svg>
