<svg width="675" height="150" viewBox="0 0 675 150" fill="none" xmlns="http://www.w3.org/2000/svg">
<path d="M673.5 75C673.5 85.4255 673.467 94.8685 668.433 103.433C663.427 111.952 653.284 119.871 632.353 126.605C590.425 140.094 506.285 148.5 337.5 148.5C168.715 148.5 84.5752 140.094 42.6469 126.605C21.7156 119.871 11.5732 111.952 6.56664 103.433C1.53297 94.8685 1.5 85.4255 1.5 75C1.5 64.5745 1.53297 55.1315 6.56664 46.5666C11.5732 38.0479 21.7156 30.1288 42.6469 23.3949C84.5752 9.90596 168.715 1.5 337.5 1.5C506.285 1.5 590.425 9.90596 632.353 23.3949C653.284 30.1288 663.427 38.0479 668.433 46.5666C673.467 55.1315 673.5 64.5745 673.5 75Z" fill="#ECA63D" fill-opacity="0.85098" stroke="#8E5704" stroke-width="3"/>
<path d="M52.2231 85.2131C47.1293 85.2131 43 81.0838 43 75.99V75.99C43 69.3681 48.3681 63.9999 54.9901 63.9999H121.01C127.632 63.9999 133 69.3681 133 75.99V75.99C133 81.0838 128.871 85.2131 123.777 85.2131H52.2231Z" fill="#8E5704"/>
<path d="M178.25 102.132C175.145 102.132 173.592 101.312 173.592 99.6709V49.6611C173.592 48.8115 173.958 48.1816 174.69 47.7715C175.452 47.332 176.639 47.1123 178.25 47.1123H181.019C182.63 47.1123 183.802 47.332 184.534 47.7715C185.296 48.1816 185.677 48.8115 185.677 49.6611V68.9531H206.771V49.6611C206.771 48.8115 207.151 48.1816 207.913 47.7715C208.675 47.332 209.861 47.1123 211.473 47.1123H214.197C217.332 47.1123 218.899 47.9619 218.899 49.6611V99.6709C218.899 101.312 217.332 102.132 214.197 102.132H211.473C208.338 102.132 206.771 101.312 206.771 99.6709V79.2803H185.677V99.6709C185.677 101.312 184.124 102.132 181.019 102.132H178.25ZM239.158 102.659C235.174 102.659 232.244 101.619 230.369 99.5391C228.523 97.4297 227.601 94.6465 227.601 91.1895C227.601 88.582 228.143 86.2383 229.227 84.1582C230.311 82.0488 232.508 80.2764 235.818 78.8408C239.129 77.4053 243.86 76.6875 250.013 76.6875V74.0947C250.013 72.5713 249.529 71.4434 248.562 70.7109C247.596 69.9785 246.058 69.6123 243.948 69.6123C242.19 69.6123 240.682 69.8027 239.422 70.1836C238.162 70.5352 236.8 71.0186 235.335 71.6338C234.573 71.9854 234.104 72.1611 233.929 72.1611C233.401 72.1611 232.815 71.7656 232.171 70.9746C231.556 70.1836 231.014 69.2754 230.545 68.25C230.076 67.2246 229.842 66.4482 229.842 65.9209C229.842 65.0127 230.486 64.1484 231.775 63.3281C233.094 62.4785 234.896 61.8047 237.181 61.3066C239.466 60.7793 242 60.5156 244.783 60.5156C250.643 60.5156 254.905 61.6875 257.571 64.0312C260.237 66.3457 261.57 69.5244 261.57 73.5674V88.2012C261.57 90.6328 261.629 92.5225 261.746 93.8701C261.893 95.2178 262.083 96.5508 262.317 97.8691C262.464 98.6602 262.537 99.2168 262.537 99.5391C262.537 100.125 261.98 100.608 260.867 100.989C259.783 101.37 258.538 101.648 257.132 101.824C255.726 102 254.598 102.088 253.748 102.088C252.84 102.088 252.181 101.707 251.771 100.945C251.39 100.154 251.082 99.085 250.848 97.7373C250.818 97.5615 250.789 97.3857 250.76 97.21C250.73 97.0342 250.687 96.8584 250.628 96.6826C250.335 97.2393 249.705 97.9863 248.738 98.9238C247.801 99.8613 246.512 100.726 244.871 101.517C243.23 102.278 241.326 102.659 239.158 102.659ZM242.981 93.4746C244.446 93.4746 245.823 93.0205 247.112 92.1123C248.401 91.1748 249.368 89.9883 250.013 88.5527V84.2461C242.718 84.2461 239.07 86.165 239.07 90.0029C239.07 91.0283 239.407 91.8633 240.081 92.5078C240.784 93.1523 241.751 93.4746 242.981 93.4746ZM276.468 102.132C273.362 102.132 271.81 101.312 271.81 99.6709V74.8857C271.81 71.1357 271.561 68.0156 271.062 65.5254C270.916 64.7344 270.843 64.1777 270.843 63.8555C270.843 63.2695 271.385 62.8008 272.469 62.4492C273.582 62.0684 274.827 61.79 276.204 61.6143C277.61 61.4385 278.738 61.3506 279.588 61.3506C280.496 61.3506 281.126 61.6875 281.478 62.3613C281.858 63.0352 282.195 64.0166 282.488 65.3057L282.752 66.4482C283.982 64.8076 285.623 63.416 287.674 62.2734C289.754 61.1016 291.98 60.5156 294.354 60.5156C298.279 60.5156 301.18 61.541 303.055 63.5918C304.93 65.6426 305.867 68.8213 305.867 73.1279V99.6709C305.867 101.312 304.285 102.132 301.121 102.132H298.968C295.862 102.132 294.31 101.312 294.31 99.6709V74.8857C294.31 73.3037 293.929 72.1025 293.167 71.2822C292.435 70.4619 291.233 70.0518 289.563 70.0518C288.157 70.0518 286.912 70.5205 285.828 71.458C284.744 72.3955 283.924 73.4355 283.367 74.5781V99.6709C283.367 101.312 281.785 102.132 278.621 102.132H276.468ZM328.367 102.659C325.525 102.659 322.991 101.839 320.765 100.198C318.567 98.5283 316.839 96.1113 315.579 92.9473C314.349 89.7539 313.733 85.9453 313.733 81.5215C313.733 77.2734 314.378 73.5674 315.667 70.4033C316.956 67.2393 318.831 64.8076 321.292 63.1084C323.782 61.3799 326.756 60.5156 330.213 60.5156C333.318 60.5156 335.97 61.3213 338.167 62.9326V45.6182C338.167 43.9189 339.734 43.0693 342.869 43.0693H345.066C346.678 43.0693 347.85 43.2891 348.582 43.7285C349.344 44.1387 349.725 44.7686 349.725 45.6182V88.2012C349.725 90.6328 349.783 92.5225 349.9 93.8701C350.047 95.2178 350.237 96.5508 350.472 97.8691C350.618 98.6602 350.691 99.2168 350.691 99.5391C350.691 100.125 350.135 100.608 349.021 100.989C347.938 101.37 346.692 101.648 345.286 101.824C343.909 102 342.796 102.088 341.946 102.088C341.038 102.088 340.394 101.736 340.013 101.033C339.661 100.33 339.339 99.3047 339.046 97.957L338.782 96.7705C337.845 98.499 336.453 99.9199 334.607 101.033C332.762 102.117 330.682 102.659 328.367 102.659ZM331.795 93.167C334.256 93.167 336.38 91.6289 338.167 88.5527V71.1064C336.321 70.1104 334.505 69.6123 332.718 69.6123C327.854 69.6123 325.423 73.582 325.423 81.5215C325.423 89.2852 327.547 93.167 331.795 93.167ZM370.379 102.132C367.771 102.132 366.321 101.59 366.028 100.506L356.229 64.207C356.111 63.8555 356.053 63.46 356.053 63.0205C356.053 61.6729 357.679 60.999 360.931 60.999C363.04 60.999 364.549 61.1309 365.457 61.3945C366.395 61.6289 366.937 62.0391 367.083 62.625L372.4 83.2354C372.518 83.6455 372.664 84.2607 372.84 85.0811L373.235 86.707C373.558 85.3887 373.88 84.1582 374.202 83.0156L379.168 62.625C379.373 61.541 380.823 60.999 383.519 60.999H385.364C386.536 60.999 387.518 61.1455 388.309 61.4385C389.1 61.7021 389.554 62.0977 389.671 62.625L394.681 83.499C394.71 83.7334 394.827 84.2021 395.032 84.9053L395.428 86.707L396.351 83.2354L401.756 62.625C402.107 61.541 403.646 60.999 406.37 60.999C409.593 60.999 411.204 61.6729 411.204 63.0205C411.204 63.1084 411.146 63.5039 411.028 64.207L401.844 100.506C401.697 101.033 401.229 101.443 400.438 101.736C399.646 102 398.68 102.132 397.537 102.132H393.714C391.136 102.132 389.715 101.59 389.451 100.506L384.661 81.917C384.456 81.1846 384.178 80.0566 383.826 78.5332L382.903 82.0049L378.465 100.506C378.348 101.033 377.894 101.443 377.103 101.736C376.312 102 375.345 102.132 374.202 102.132H370.379ZM422.542 102.132C419.437 102.132 417.884 101.312 417.884 99.6709V74.8857C417.884 71.1357 417.635 68.0156 417.137 65.5254C416.99 64.7344 416.917 64.1777 416.917 63.8555C416.917 63.2695 417.459 62.8008 418.543 62.4492C419.656 62.0684 420.901 61.79 422.278 61.6143C423.685 61.4385 424.812 61.3506 425.662 61.3506C426.57 61.3506 427.2 61.6875 427.552 62.3613C427.933 63.0352 428.27 64.0166 428.562 65.3057L428.826 66.4482C429.822 64.6318 430.965 63.1963 432.254 62.1416C433.572 61.0576 435.257 60.5156 437.308 60.5156C439.007 60.5156 440.179 60.9551 440.823 61.834C441.468 62.6836 441.79 63.6504 441.79 64.7344C441.79 65.3203 441.688 66.1553 441.482 67.2393C441.277 68.2939 440.984 69.2314 440.604 70.0518C440.223 70.8721 439.798 71.2822 439.329 71.2822C439.007 71.2822 438.523 71.1943 437.879 71.0186C437 70.7842 436.253 70.667 435.638 70.667C434.202 70.667 432.942 71.0771 431.858 71.8975C430.804 72.6885 429.998 73.582 429.441 74.5781V99.6709C429.441 101.312 427.859 102.132 424.695 102.132H422.542ZM450.887 54.4072C449.246 54.4072 448.045 54.2021 447.283 53.792C446.551 53.3818 446.185 52.752 446.185 51.9023V45.6182C446.185 44.7686 446.565 44.1387 447.327 43.7285C448.089 43.2891 449.275 43.0693 450.887 43.0693H453.04C454.651 43.0693 455.838 43.2891 456.6 43.7285C457.361 44.1387 457.742 44.7686 457.742 45.6182V51.9023C457.742 52.752 457.361 53.3818 456.6 53.792C455.867 54.2021 454.681 54.4072 453.04 54.4072H450.887ZM450.887 102.132C447.752 102.132 446.185 101.312 446.185 99.6709V63.46C446.185 62.6396 446.565 62.0244 447.327 61.6143C448.089 61.2041 449.275 60.999 450.887 60.999H453.04C454.651 60.999 455.838 61.2041 456.6 61.6143C457.361 62.0244 457.742 62.6396 457.742 63.46V99.6709C457.742 101.312 456.175 102.132 453.04 102.132H450.887ZM479.759 102.659C476.038 102.659 473.196 101.619 471.233 99.5391C469.3 97.4297 468.333 94.2363 468.333 89.959V70.2715H467.103C466.282 70.2715 465.682 69.9639 465.301 69.3486C464.949 68.7334 464.773 67.7373 464.773 66.3604V65.042C464.773 63.665 464.949 62.6689 465.301 62.0537C465.682 61.4385 466.282 61.1309 467.103 61.1309H468.333L469.344 53.7041C469.578 52.0635 470.984 51.2432 473.562 51.2432H476.023C477.371 51.2432 478.353 51.4482 478.968 51.8584C479.612 52.2686 479.935 52.8838 479.935 53.7041V61.1309H483.758C484.578 61.1309 485.164 61.4385 485.516 62.0537C485.896 62.6689 486.087 63.665 486.087 65.042V66.3604C486.087 67.7373 485.896 68.7334 485.516 69.3486C485.164 69.9639 484.578 70.2715 483.758 70.2715H479.935V90.0908C479.935 91.292 480.14 92.1562 480.55 92.6836C480.989 93.2109 481.707 93.4746 482.703 93.4746C482.996 93.4746 483.392 93.4307 483.89 93.3428C484.388 93.2256 484.695 93.167 484.812 93.167C485.281 93.167 485.691 93.5625 486.043 94.3535C486.424 95.1152 486.717 95.9648 486.922 96.9023C487.156 97.8398 487.273 98.4697 487.273 98.792C487.273 101.37 484.769 102.659 479.759 102.659ZM498.436 54.4072C496.795 54.4072 495.594 54.2021 494.832 53.792C494.1 53.3818 493.733 52.752 493.733 51.9023V45.6182C493.733 44.7686 494.114 44.1387 494.876 43.7285C495.638 43.2891 496.824 43.0693 498.436 43.0693H500.589C502.2 43.0693 503.387 43.2891 504.148 43.7285C504.91 44.1387 505.291 44.7686 505.291 45.6182V51.9023C505.291 52.752 504.91 53.3818 504.148 53.792C503.416 54.2021 502.229 54.4072 500.589 54.4072H498.436ZM498.436 102.132C495.301 102.132 493.733 101.312 493.733 99.6709V63.46C493.733 62.6396 494.114 62.0244 494.876 61.6143C495.638 61.2041 496.824 60.999 498.436 60.999H500.589C502.2 60.999 503.387 61.2041 504.148 61.6143C504.91 62.0244 505.291 62.6396 505.291 63.46V99.6709C505.291 101.312 503.724 102.132 500.589 102.132H498.436ZM519.397 102.132C516.292 102.132 514.739 101.312 514.739 99.6709V74.8857C514.739 71.1357 514.49 68.0156 513.992 65.5254C513.846 64.7344 513.772 64.1777 513.772 63.8555C513.772 63.2695 514.314 62.8008 515.398 62.4492C516.512 62.0684 517.757 61.79 519.134 61.6143C520.54 61.4385 521.668 61.3506 522.518 61.3506C523.426 61.3506 524.056 61.6875 524.407 62.3613C524.788 63.0352 525.125 64.0166 525.418 65.3057L525.682 66.4482C526.912 64.8076 528.553 63.416 530.604 62.2734C532.684 61.1016 534.91 60.5156 537.283 60.5156C541.209 60.5156 544.109 61.541 545.984 63.5918C547.859 65.6426 548.797 68.8213 548.797 73.1279V99.6709C548.797 101.312 547.215 102.132 544.051 102.132H541.897C538.792 102.132 537.239 101.312 537.239 99.6709V74.8857C537.239 73.3037 536.858 72.1025 536.097 71.2822C535.364 70.4619 534.163 70.0518 532.493 70.0518C531.087 70.0518 529.842 70.5205 528.758 71.458C527.674 72.3955 526.854 73.4355 526.297 74.5781V99.6709C526.297 101.312 524.715 102.132 521.551 102.132H519.397ZM573.846 118.567C561.453 118.567 555.257 114.964 555.257 107.757C555.257 105.735 555.857 103.948 557.059 102.396C558.289 100.843 560.062 99.6123 562.376 98.7041L562.42 98.3965C561.365 97.8398 560.545 97.0488 559.959 96.0234C559.373 94.998 559.08 93.8408 559.08 92.5518C559.08 91.2334 559.476 90.0176 560.267 88.9043C561.087 87.791 562.259 86.8389 563.782 86.0479C561.79 84.9346 560.223 83.4111 559.08 81.4775C557.967 79.5439 557.41 77.1855 557.41 74.4023C557.41 69.6562 558.948 66.1553 562.024 63.8994C565.13 61.6436 569.202 60.5156 574.241 60.5156C576.351 60.5156 578.357 60.7207 580.262 61.1309H592.83C593.65 61.1309 594.251 61.4531 594.632 62.0977C595.013 62.7129 595.203 63.6943 595.203 65.042V66.3604C595.203 68.8213 594.573 70.0518 593.313 70.0518C592.874 70.0518 592.273 70.0225 591.512 69.9639C590.779 69.9053 590.252 69.832 589.93 69.7441L589.798 70.0518C590.149 70.5205 590.442 71.1797 590.677 72.0293C590.911 72.8496 591.028 73.6406 591.028 74.4023C591.028 79.0605 589.563 82.5322 586.634 84.8174C583.704 87.0732 579.866 88.2012 575.12 88.2012C571.927 88.2012 570.33 88.9189 570.33 90.3545C570.33 90.999 570.652 91.5117 571.297 91.8926C571.941 92.2441 572.762 92.5225 573.758 92.7275C574.783 92.9326 576.233 93.1523 578.108 93.3867C579.456 93.5332 580.716 93.709 581.888 93.9141C585.579 94.6465 588.523 95.8477 590.721 97.5176C592.918 99.1582 594.017 101.751 594.017 105.296C594.017 107.962 593.182 110.291 591.512 112.283C589.842 114.275 587.483 115.813 584.437 116.897C581.39 118.011 577.859 118.567 573.846 118.567ZM574.241 79.8955C575.97 79.8955 577.376 79.4414 578.46 78.5332C579.573 77.625 580.13 76.248 580.13 74.4023C580.13 72.5566 579.573 71.1797 578.46 70.2715C577.376 69.334 575.97 68.8652 574.241 68.8652C572.513 68.8652 571.092 69.334 569.979 70.2715C568.895 71.1797 568.353 72.5566 568.353 74.4023C568.353 76.248 568.895 77.625 569.979 78.5332C571.092 79.4414 572.513 79.8955 574.241 79.8955ZM574.725 109.427C577.361 109.427 579.354 109.09 580.701 108.416C582.078 107.742 582.767 106.805 582.767 105.604C582.767 104.783 582.371 104.124 581.58 103.626C580.818 103.157 579.573 102.762 577.845 102.439C576.146 102.146 573.758 101.897 570.682 101.692C569.363 102.161 568.338 102.776 567.605 103.538C566.873 104.3 566.507 105.091 566.507 105.911C566.507 107.024 567.181 107.889 568.528 108.504C569.876 109.119 571.941 109.427 574.725 109.427Z" fill="#8E5704"/>
</svg>
