<svg width="150" height="150" viewBox="0 0 150 150" fill="none" xmlns="http://www.w3.org/2000/svg">
<mask id="path-1-inside-1_239_49" fill="white">
<path d="M108 75C108 82.8807 104.523 90.4387 98.3345 96.0112C92.1458 101.584 83.7521 104.714 75 104.714C66.2479 104.714 57.8542 101.584 51.6655 96.0112C45.4768 90.4387 42 82.8807 42 75L51.8992 75C51.8992 80.5167 54.333 85.8075 58.6652 89.7083C62.9975 93.6092 68.8733 95.8007 75 95.8007C81.1267 95.8007 87.0025 93.6092 91.3348 89.7083C95.667 85.8074 98.1008 80.5167 98.1008 75H108Z"/>
</mask>
<path d="M108 75C108 82.8807 104.523 90.4387 98.3345 96.0112C92.1458 101.584 83.7521 104.714 75 104.714C66.2479 104.714 57.8542 101.584 51.6655 96.0112C45.4768 90.4387 42 82.8807 42 75L51.8992 75C51.8992 80.5167 54.333 85.8075 58.6652 89.7083C62.9975 93.6092 68.8733 95.8007 75 95.8007C81.1267 95.8007 87.0025 93.6092 91.3348 89.7083C95.667 85.8074 98.1008 80.5167 98.1008 75H108Z" stroke="#D16A00" stroke-width="20" mask="url(#path-1-inside-1_239_49)"/>
<rect x="61" y="27" width="28" height="61.2571" rx="14" fill="#D16A00"/>
<rect x="70" y="98.3143" width="10" height="21.9429" rx="5" fill="#D16A00"/>
<rect x="42" y="58.0857" width="9.9" height="21.9429" rx="4.95" fill="#D16A00"/>
<rect x="98.1" y="58.0857" width="9.9" height="21.9429" rx="4.95" fill="#D16A00"/>
<rect x="56" y="115.686" width="38" height="7.31429" rx="3.65714" fill="#D16A00"/>
</svg>
