<svg width="675" height="150" viewBox="0 0 675 150" fill="none" xmlns="http://www.w3.org/2000/svg">
<path d="M673.5 75C673.5 85.4255 673.467 94.8685 668.433 103.433C663.427 111.952 653.284 119.871 632.353 126.605C590.425 140.094 506.285 148.5 337.5 148.5C168.715 148.5 84.5752 140.094 42.6469 126.605C21.7156 119.871 11.5732 111.952 6.56664 103.433C1.53297 94.8685 1.5 85.4255 1.5 75C1.5 64.5745 1.53297 55.1315 6.56664 46.5666C11.5732 38.0479 21.7156 30.1288 42.6469 23.3949C84.5752 9.90596 168.715 1.5 337.5 1.5C506.285 1.5 590.425 9.90596 632.353 23.3949C653.284 30.1288 663.427 38.0479 668.433 46.5666C673.467 55.1315 673.5 64.5745 673.5 75Z" fill="#ECA63D" fill-opacity="0.85098" stroke="#8E5704" stroke-width="3"/>
<rect x="43" y="85.2131" width="21.2132" height="90" rx="10.6066" transform="rotate(-90 43 85.2131)" fill="#8E5704"/>
<path d="M175.525 102C174.441 102 173.65 101.751 173.152 101.253C172.654 100.755 172.405 99.9639 172.405 98.8799V50.4082C172.405 49.3242 172.654 48.5479 173.152 48.0791C173.65 47.5811 174.441 47.332 175.525 47.332H204.134C204.954 47.332 205.54 47.6396 205.892 48.2549C206.272 48.8701 206.463 49.8662 206.463 51.2432V53.6162C206.463 54.9932 206.272 55.9893 205.892 56.6045C205.54 57.2197 204.954 57.5273 204.134 57.5273H184.446V68.8652H202.024C202.845 68.8652 203.431 69.1729 203.782 69.7881C204.163 70.4033 204.354 71.3994 204.354 72.7764V75.1934C204.354 76.5703 204.163 77.5664 203.782 78.1816C203.431 78.7969 202.845 79.1045 202.024 79.1045H184.446V91.7607H204.178C204.998 91.7607 205.584 92.0684 205.936 92.6836C206.316 93.2988 206.507 94.2803 206.507 95.6279V98.0889C206.507 99.4658 206.316 100.462 205.936 101.077C205.584 101.692 204.998 102 204.178 102H175.525ZM219.251 102.132C216.146 102.132 214.593 101.312 214.593 99.6709V74.8857C214.593 71.1357 214.344 68.0156 213.846 65.5254C213.699 64.7344 213.626 64.1777 213.626 63.8555C213.626 63.2695 214.168 62.8008 215.252 62.4492C216.365 62.0684 217.61 61.79 218.987 61.6143C220.394 61.4385 221.521 61.3506 222.371 61.3506C223.279 61.3506 223.909 61.6875 224.261 62.3613C224.642 63.0352 224.979 64.0166 225.271 65.3057L225.535 66.4482C226.766 64.8076 228.406 63.416 230.457 62.2734C232.537 61.1016 234.764 60.5156 237.137 60.5156C241.062 60.5156 243.963 61.541 245.838 63.5918C247.713 65.6426 248.65 68.8213 248.65 73.1279V99.6709C248.65 101.312 247.068 102.132 243.904 102.132H241.751C238.646 102.132 237.093 101.312 237.093 99.6709V74.8857C237.093 73.3037 236.712 72.1025 235.95 71.2822C235.218 70.4619 234.017 70.0518 232.347 70.0518C230.94 70.0518 229.695 70.5205 228.611 71.458C227.527 72.3955 226.707 73.4355 226.15 74.5781V99.6709C226.15 101.312 224.568 102.132 221.404 102.132H219.251ZM273.699 118.567C261.307 118.567 255.11 114.964 255.11 107.757C255.11 105.735 255.711 103.948 256.912 102.396C258.143 100.843 259.915 99.6123 262.229 98.7041L262.273 98.3965C261.219 97.8398 260.398 97.0488 259.812 96.0234C259.227 94.998 258.934 93.8408 258.934 92.5518C258.934 91.2334 259.329 90.0176 260.12 88.9043C260.94 87.791 262.112 86.8389 263.636 86.0479C261.644 84.9346 260.076 83.4111 258.934 81.4775C257.82 79.5439 257.264 77.1855 257.264 74.4023C257.264 69.6562 258.802 66.1553 261.878 63.8994C264.983 61.6436 269.056 60.5156 274.095 60.5156C276.204 60.5156 278.211 60.7207 280.115 61.1309H292.684C293.504 61.1309 294.104 61.4531 294.485 62.0977C294.866 62.7129 295.057 63.6943 295.057 65.042V66.3604C295.057 68.8213 294.427 70.0518 293.167 70.0518C292.728 70.0518 292.127 70.0225 291.365 69.9639C290.633 69.9053 290.105 69.832 289.783 69.7441L289.651 70.0518C290.003 70.5205 290.296 71.1797 290.53 72.0293C290.765 72.8496 290.882 73.6406 290.882 74.4023C290.882 79.0605 289.417 82.5322 286.487 84.8174C283.558 87.0732 279.72 88.2012 274.974 88.2012C271.78 88.2012 270.184 88.9189 270.184 90.3545C270.184 90.999 270.506 91.5117 271.15 91.8926C271.795 92.2441 272.615 92.5225 273.611 92.7275C274.637 92.9326 276.087 93.1523 277.962 93.3867C279.31 93.5332 280.569 93.709 281.741 93.9141C285.433 94.6465 288.377 95.8477 290.574 97.5176C292.771 99.1582 293.87 101.751 293.87 105.296C293.87 107.962 293.035 110.291 291.365 112.283C289.695 114.275 287.337 115.813 284.29 116.897C281.243 118.011 277.713 118.567 273.699 118.567ZM274.095 79.8955C275.823 79.8955 277.229 79.4414 278.313 78.5332C279.427 77.625 279.983 76.248 279.983 74.4023C279.983 72.5566 279.427 71.1797 278.313 70.2715C277.229 69.334 275.823 68.8652 274.095 68.8652C272.366 68.8652 270.945 69.334 269.832 70.2715C268.748 71.1797 268.206 72.5566 268.206 74.4023C268.206 76.248 268.748 77.625 269.832 78.5332C270.945 79.4414 272.366 79.8955 274.095 79.8955ZM274.578 109.427C277.215 109.427 279.207 109.09 280.555 108.416C281.932 107.742 282.62 106.805 282.62 105.604C282.62 104.783 282.225 104.124 281.434 103.626C280.672 103.157 279.427 102.762 277.698 102.439C275.999 102.146 273.611 101.897 270.535 101.692C269.217 102.161 268.191 102.776 267.459 103.538C266.727 104.3 266.36 105.091 266.36 105.911C266.36 107.024 267.034 107.889 268.382 108.504C269.729 109.119 271.795 109.427 274.578 109.427ZM305.472 102.132C302.366 102.132 300.813 101.312 300.813 99.6709V74.8857C300.813 71.1357 300.564 68.0156 300.066 65.5254C299.92 64.7344 299.847 64.1777 299.847 63.8555C299.847 63.2695 300.389 62.8008 301.473 62.4492C302.586 62.0684 303.831 61.79 305.208 61.6143C306.614 61.4385 307.742 61.3506 308.592 61.3506C309.5 61.3506 310.13 61.6875 310.481 62.3613C310.862 63.0352 311.199 64.0166 311.492 65.3057L311.756 66.4482C312.752 64.6318 313.895 63.1963 315.184 62.1416C316.502 61.0576 318.187 60.5156 320.237 60.5156C321.937 60.5156 323.108 60.9551 323.753 61.834C324.397 62.6836 324.72 63.6504 324.72 64.7344C324.72 65.3203 324.617 66.1553 324.412 67.2393C324.207 68.2939 323.914 69.2314 323.533 70.0518C323.152 70.8721 322.728 71.2822 322.259 71.2822C321.937 71.2822 321.453 71.1943 320.809 71.0186C319.93 70.7842 319.183 70.667 318.567 70.667C317.132 70.667 315.872 71.0771 314.788 71.8975C313.733 72.6885 312.928 73.582 312.371 74.5781V99.6709C312.371 101.312 310.789 102.132 307.625 102.132H305.472ZM339.354 102.659C335.369 102.659 332.439 101.619 330.564 99.5391C328.719 97.4297 327.796 94.6465 327.796 91.1895C327.796 88.582 328.338 86.2383 329.422 84.1582C330.506 82.0488 332.703 80.2764 336.014 78.8408C339.324 77.4053 344.056 76.6875 350.208 76.6875V74.0947C350.208 72.5713 349.725 71.4434 348.758 70.7109C347.791 69.9785 346.253 69.6123 344.144 69.6123C342.386 69.6123 340.877 69.8027 339.617 70.1836C338.357 70.5352 336.995 71.0186 335.53 71.6338C334.769 71.9854 334.3 72.1611 334.124 72.1611C333.597 72.1611 333.011 71.7656 332.366 70.9746C331.751 70.1836 331.209 69.2754 330.74 68.25C330.271 67.2246 330.037 66.4482 330.037 65.9209C330.037 65.0127 330.682 64.1484 331.971 63.3281C333.289 62.4785 335.091 61.8047 337.376 61.3066C339.661 60.7793 342.195 60.5156 344.979 60.5156C350.838 60.5156 355.101 61.6875 357.767 64.0312C360.433 66.3457 361.766 69.5244 361.766 73.5674V88.2012C361.766 90.6328 361.824 92.5225 361.941 93.8701C362.088 95.2178 362.278 96.5508 362.513 97.8691C362.659 98.6602 362.732 99.2168 362.732 99.5391C362.732 100.125 362.176 100.608 361.062 100.989C359.979 101.37 358.733 101.648 357.327 101.824C355.921 102 354.793 102.088 353.943 102.088C353.035 102.088 352.376 101.707 351.966 100.945C351.585 100.154 351.277 99.085 351.043 97.7373C351.014 97.5615 350.984 97.3857 350.955 97.21C350.926 97.0342 350.882 96.8584 350.823 96.6826C350.53 97.2393 349.9 97.9863 348.934 98.9238C347.996 99.8613 346.707 100.726 345.066 101.517C343.426 102.278 341.521 102.659 339.354 102.659ZM343.177 93.4746C344.642 93.4746 346.019 93.0205 347.308 92.1123C348.597 91.1748 349.563 89.9883 350.208 88.5527V84.2461C342.913 84.2461 339.266 86.165 339.266 90.0029C339.266 91.0283 339.603 91.8633 340.276 92.5078C340.979 93.1523 341.946 93.4746 343.177 93.4746ZM384.793 102.132C383.562 102.132 382.566 102.015 381.805 101.78C381.072 101.546 380.604 101.121 380.398 100.506L368.006 64.1191C367.977 63.9434 367.918 63.709 367.83 63.416C367.742 63.0938 367.698 62.8594 367.698 62.7129C367.698 62.127 368.079 61.7021 368.841 61.4385C369.603 61.1455 370.804 60.999 372.444 60.999H374.993C376.253 60.999 377.264 61.1309 378.025 61.3945C378.787 61.6289 379.256 62.0391 379.432 62.625L384.002 77.0391C384.148 77.5664 384.603 79.4707 385.364 82.752L386.199 86.4873H386.551C387.459 81.8877 388.177 78.7383 388.704 77.0391L393.318 62.625C393.494 62.0391 393.948 61.6289 394.681 61.3945C395.442 61.1309 396.453 60.999 397.713 60.999H399.646C401.258 60.999 402.43 61.1455 403.162 61.4385C403.924 61.7021 404.305 62.127 404.305 62.7129C404.305 63.1816 404.231 63.6504 404.085 64.1191L391.648 100.506C391.473 101.092 391.004 101.517 390.242 101.78C389.51 102.015 388.528 102.132 387.298 102.132H384.793ZM414.324 54.4072C412.684 54.4072 411.482 54.2021 410.721 53.792C409.988 53.3818 409.622 52.752 409.622 51.9023V45.6182C409.622 44.7686 410.003 44.1387 410.765 43.7285C411.526 43.2891 412.713 43.0693 414.324 43.0693H416.478C418.089 43.0693 419.275 43.2891 420.037 43.7285C420.799 44.1387 421.18 44.7686 421.18 45.6182V51.9023C421.18 52.752 420.799 53.3818 420.037 53.792C419.305 54.2021 418.118 54.4072 416.478 54.4072H414.324ZM414.324 102.132C411.189 102.132 409.622 101.312 409.622 99.6709V63.46C409.622 62.6396 410.003 62.0244 410.765 61.6143C411.526 61.2041 412.713 60.999 414.324 60.999H416.478C418.089 60.999 419.275 61.2041 420.037 61.6143C420.799 62.0244 421.18 62.6396 421.18 63.46V99.6709C421.18 101.312 419.612 102.132 416.478 102.132H414.324ZM435.286 102.132C432.181 102.132 430.628 101.312 430.628 99.6709V74.8857C430.628 71.1357 430.379 68.0156 429.881 65.5254C429.734 64.7344 429.661 64.1777 429.661 63.8555C429.661 63.2695 430.203 62.8008 431.287 62.4492C432.4 62.0684 433.646 61.79 435.022 61.6143C436.429 61.4385 437.557 61.3506 438.406 61.3506C439.314 61.3506 439.944 61.6875 440.296 62.3613C440.677 63.0352 441.014 64.0166 441.307 65.3057L441.57 66.4482C442.801 64.8076 444.441 63.416 446.492 62.2734C448.572 61.1016 450.799 60.5156 453.172 60.5156C457.098 60.5156 459.998 61.541 461.873 63.5918C463.748 65.6426 464.686 68.8213 464.686 73.1279V99.6709C464.686 101.312 463.104 102.132 459.939 102.132H457.786C454.681 102.132 453.128 101.312 453.128 99.6709V74.8857C453.128 73.3037 452.747 72.1025 451.985 71.2822C451.253 70.4619 450.052 70.0518 448.382 70.0518C446.976 70.0518 445.73 70.5205 444.646 71.458C443.562 72.3955 442.742 73.4355 442.186 74.5781V99.6709C442.186 101.312 440.604 102.132 437.439 102.132H435.286ZM489.734 118.567C477.342 118.567 471.146 114.964 471.146 107.757C471.146 105.735 471.746 103.948 472.947 102.396C474.178 100.843 475.95 99.6123 478.265 98.7041L478.309 98.3965C477.254 97.8398 476.434 97.0488 475.848 96.0234C475.262 94.998 474.969 93.8408 474.969 92.5518C474.969 91.2334 475.364 90.0176 476.155 88.9043C476.976 87.791 478.147 86.8389 479.671 86.0479C477.679 84.9346 476.111 83.4111 474.969 81.4775C473.855 79.5439 473.299 77.1855 473.299 74.4023C473.299 69.6562 474.837 66.1553 477.913 63.8994C481.019 61.6436 485.091 60.5156 490.13 60.5156C492.239 60.5156 494.246 60.7207 496.15 61.1309H508.719C509.539 61.1309 510.14 61.4531 510.521 62.0977C510.901 62.7129 511.092 63.6943 511.092 65.042V66.3604C511.092 68.8213 510.462 70.0518 509.202 70.0518C508.763 70.0518 508.162 70.0225 507.4 69.9639C506.668 69.9053 506.141 69.832 505.818 69.7441L505.687 70.0518C506.038 70.5205 506.331 71.1797 506.565 72.0293C506.8 72.8496 506.917 73.6406 506.917 74.4023C506.917 79.0605 505.452 82.5322 502.522 84.8174C499.593 87.0732 495.755 88.2012 491.009 88.2012C487.815 88.2012 486.219 88.9189 486.219 90.3545C486.219 90.999 486.541 91.5117 487.186 91.8926C487.83 92.2441 488.65 92.5225 489.646 92.7275C490.672 92.9326 492.122 93.1523 493.997 93.3867C495.345 93.5332 496.604 93.709 497.776 93.9141C501.468 94.6465 504.412 95.8477 506.609 97.5176C508.807 99.1582 509.905 101.751 509.905 105.296C509.905 107.962 509.07 110.291 507.4 112.283C505.73 114.275 503.372 115.813 500.325 116.897C497.278 118.011 493.748 118.567 489.734 118.567ZM490.13 79.8955C491.858 79.8955 493.265 79.4414 494.349 78.5332C495.462 77.625 496.019 76.248 496.019 74.4023C496.019 72.5566 495.462 71.1797 494.349 70.2715C493.265 69.334 491.858 68.8652 490.13 68.8652C488.401 68.8652 486.98 69.334 485.867 70.2715C484.783 71.1797 484.241 72.5566 484.241 74.4023C484.241 76.248 484.783 77.625 485.867 78.5332C486.98 79.4414 488.401 79.8955 490.13 79.8955ZM490.613 109.427C493.25 109.427 495.242 109.09 496.59 108.416C497.967 107.742 498.655 106.805 498.655 105.604C498.655 104.783 498.26 104.124 497.469 103.626C496.707 103.157 495.462 102.762 493.733 102.439C492.034 102.146 489.646 101.897 486.57 101.692C485.252 102.161 484.227 102.776 483.494 103.538C482.762 104.3 482.396 105.091 482.396 105.911C482.396 107.024 483.069 107.889 484.417 108.504C485.765 109.119 487.83 109.427 490.613 109.427Z" fill="#8E5704"/>
</svg>
