<svg width="95" height="26" viewBox="0 0 95 26" fill="none" xmlns="http://www.w3.org/2000/svg">
<path d="M7.176 1.448C9.11733 1.448 10.76 1.77866 12.104 2.44C13.448 3.08 14.472 3.99733 15.176 5.192C15.88 6.36533 16.232 7.76267 16.232 9.384C16.232 10.344 16.0827 11.3147 15.784 12.296C15.5067 13.256 15.048 14.1307 14.408 14.92C13.7893 15.7093 12.9467 16.3493 11.88 16.84C10.8347 17.3093 9.544 17.544 8.008 17.544H4.68V25H0.0400002V1.448H7.176ZM7.976 13.032C8.68 13.032 9.26667 12.9147 9.736 12.68C10.2053 12.424 10.568 12.1147 10.824 11.752C11.1013 11.368 11.2933 10.9733 11.4 10.568C11.528 10.1627 11.592 9.81067 11.592 9.512C11.592 9.27733 11.5493 8.968 11.464 8.584C11.4 8.17867 11.2507 7.77333 11.016 7.368C10.7813 6.96267 10.4187 6.62133 9.928 6.344C9.45867 6.06667 8.81867 5.928 8.008 5.928H4.68V13.032H7.976ZM15.3528 25L25.9768 0.519999H26.2328L36.8568 25H31.4808L24.6968 7.784L28.0568 5.48L19.9288 25H15.3528ZM22.6168 16.488H29.6888L31.3208 20.392H21.1768L22.6168 16.488ZM52.866 7.144C51.97 6.65333 51.0527 6.248 50.114 5.928C49.1967 5.608 48.3327 5.448 47.522 5.448C46.5193 5.448 45.73 5.65067 45.154 6.056C44.578 6.46133 44.29 7.06933 44.29 7.88C44.29 8.43467 44.5033 8.936 44.93 9.384C45.378 9.81067 45.9433 10.1947 46.626 10.536C47.33 10.8773 48.0553 11.1867 48.802 11.464C49.4847 11.72 50.1567 12.0293 50.818 12.392C51.5007 12.7333 52.1087 13.1707 52.642 13.704C53.1753 14.216 53.602 14.8667 53.922 15.656C54.242 16.424 54.402 17.3733 54.402 18.504C54.402 19.6987 54.0927 20.808 53.474 21.832C52.8553 22.856 51.9487 23.688 50.754 24.328C49.5593 24.9467 48.0873 25.256 46.338 25.256C45.442 25.256 44.5247 25.1707 43.586 25C42.6687 24.808 41.762 24.5307 40.866 24.168C39.97 23.784 39.106 23.304 38.274 22.728L40.322 19.112C40.8767 19.5173 41.474 19.88 42.114 20.2C42.7753 20.4987 43.4367 20.7333 44.098 20.904C44.7593 21.0747 45.3673 21.16 45.922 21.16C46.4767 21.16 47.0313 21.0853 47.586 20.936C48.162 20.7653 48.6313 20.488 48.994 20.104C49.378 19.72 49.57 19.1867 49.57 18.504C49.57 18.0347 49.41 17.608 49.09 17.224C48.7913 16.84 48.3753 16.488 47.842 16.168C47.33 15.848 46.7647 15.5707 46.146 15.336C45.4207 15.0587 44.674 14.7387 43.906 14.376C43.138 14.0133 42.4127 13.576 41.73 13.064C41.0687 12.5307 40.5247 11.88 40.098 11.112C39.6927 10.3227 39.49 9.36267 39.49 8.232C39.49 6.86667 39.7887 5.68267 40.386 4.68C41.0047 3.67733 41.8687 2.888 42.978 2.312C44.0873 1.71467 45.3673 1.384 46.818 1.32C48.7167 1.32 50.2527 1.544 51.426 1.992C52.6207 2.44 53.6873 2.97333 54.626 3.592L52.866 7.144ZM57.3463 1.448H73.2183V5.928H67.4903V25H62.8503V5.928H57.3463V1.448ZM77.6963 1.448H93.7603V5.928H82.3363V10.952H92.4483V15.432H82.3363V20.52H94.2083V25H77.6963V1.448Z" fill="#2B50E7"/>
</svg>
