<svg width="369" height="404" viewBox="0 0 369 404" fill="none" xmlns="http://www.w3.org/2000/svg">
<circle cx="75" cy="75" r="72.5" transform="matrix(-1 0 0 1 172 173)" fill="#A68563" fill-opacity="0.5" stroke="#544431" stroke-width="5"/>
<path d="M118.655 261.838L118.655 248C118.655 236.954 127.609 228 138.655 228H144" stroke="#544431" stroke-width="15" stroke-linecap="round"/>
<path d="M80.3794 261.838C80.3794 265.98 83.7373 269.338 87.8794 269.338C92.0215 269.338 95.3794 265.98 95.3794 261.838H80.3794ZM95.3794 261.838V248H80.3794V261.838H95.3794ZM107.879 235.5H139.474V220.5H107.879V235.5ZM95.3794 248C95.3794 241.096 100.976 235.5 107.879 235.5V220.5C92.6916 220.5 80.3794 232.812 80.3794 248H95.3794Z" fill="#544431"/>
<path d="M49.6035 261.838C49.6035 265.98 52.9614 269.338 57.1035 269.338C61.2457 269.338 64.6035 265.98 64.6035 261.838H49.6035ZM64.6035 261.838V248H49.6035L49.6035 261.838H64.6035ZM77.1035 235.5H108.698V220.5H77.1035V235.5ZM64.6035 248C64.6035 241.096 70.2 235.5 77.1035 235.5V220.5C61.9157 220.5 49.6035 232.812 49.6035 248H64.6035Z" fill="#544431"/>
<path d="M120.368 284.156C119.591 285.446 117.719 285.446 116.942 284.156L104.803 264.003C104 262.67 104.96 260.971 106.516 260.971H130.794C132.35 260.971 133.31 262.67 132.507 264.003L120.368 284.156Z" fill="#544431"/>
<path d="M89.5926 284.156C88.8151 285.446 86.9436 285.446 86.1661 284.156L74.0275 264.003C73.2246 262.67 74.1846 260.971 75.7407 260.971H100.018C101.574 260.971 102.534 262.67 101.731 264.003L89.5926 284.156Z" fill="#544431"/>
<path d="M58.8167 284.156C58.0392 285.446 56.1677 285.446 55.3902 284.156L43.2516 264.003C42.4487 262.67 43.4087 260.971 44.9648 260.971H69.2421C70.7982 260.971 71.7582 262.67 70.9553 264.003L58.8167 284.156Z" fill="#544431"/>
<circle cx="270" cy="248" r="72.5" fill="#4F4133" fill-opacity="0.501961" stroke="#413426" stroke-width="5"/>
<path d="M248.345 261.838V248C248.345 236.954 239.391 228 228.345 228H223" stroke="#413426" stroke-width="15" stroke-linecap="round"/>
<path d="M286.621 261.838C286.621 265.98 283.263 269.338 279.121 269.338C274.978 269.338 271.621 265.98 271.621 261.838H286.621ZM271.621 261.838V248H286.621V261.838H271.621ZM259.121 235.5H227.526V220.5H259.121V235.5ZM271.621 248C271.621 241.096 266.024 235.5 259.121 235.5V220.5C274.308 220.5 286.621 232.812 286.621 248H271.621Z" fill="#413426"/>
<path d="M317.396 261.838C317.396 265.98 314.039 269.338 309.896 269.338C305.754 269.338 302.396 265.98 302.396 261.838H317.396ZM302.396 261.838V248H317.396V261.838H302.396ZM289.896 235.5H258.302V220.5H289.896V235.5ZM302.396 248C302.396 241.096 296.8 235.5 289.896 235.5V220.5C305.084 220.5 317.396 232.812 317.396 248H302.396Z" fill="#413426"/>
<path d="M246.632 284.156C247.409 285.446 249.281 285.446 250.058 284.156L262.197 264.003C263 262.67 262.04 260.971 260.484 260.971H236.206C234.65 260.971 233.69 262.67 234.493 264.003L246.632 284.156Z" fill="#413426"/>
<path d="M277.407 284.156C278.185 285.446 280.056 285.446 280.834 284.156L292.973 264.003C293.775 262.67 292.815 260.971 291.259 260.971H266.982C265.426 260.971 264.466 262.67 265.269 264.003L277.407 284.156Z" fill="#413426"/>
<path d="M308.183 284.156C308.961 285.446 310.832 285.446 311.61 284.156L323.748 264.003C324.551 262.67 323.591 260.971 322.035 260.971H297.758C296.202 260.971 295.242 262.67 296.045 264.003L308.183 284.156Z" fill="#413426"/>
<path fill-rule="evenodd" clip-rule="evenodd" d="M20 0C8.9543 0 0 8.9543 0 20V288.983C0 296.112 3.79485 302.702 9.96072 306.281L173.515 401.205C179.694 404.791 187.316 404.809 193.512 401.252L358.958 306.265C365.17 302.699 369 296.083 369 288.921V20C369 8.9543 360.046 0 349 0H20ZM97 323C138.421 323 172 289.421 172 248C172 206.579 138.421 173 97 173C55.5786 173 22 206.579 22 248C22 289.421 55.5786 323 97 323ZM270 323C228.579 323 195 289.421 195 248C195 206.579 228.579 173 270 173C311.421 173 345 206.579 345 248C345 289.421 311.421 323 270 323ZM185 23C143.579 23 110 56.5786 110 98C110 139.421 143.579 173 185 173C226.421 173 260 139.421 260 98C260 56.5786 226.421 23 185 23Z" fill="#A68563" fill-opacity="0.8"/>
<circle cx="185" cy="98" r="72.5" transform="rotate(-180 185 98)" fill="#A4B6FF" fill-opacity="0.85098" stroke="#6B4000" stroke-width="5"/>
<rect x="162" y="105" width="15" height="45" rx="7.5" transform="rotate(-90 162 105)" fill="#2B50E7"/>
<rect x="177" y="75" width="15" height="45" rx="7.5" fill="#2B50E7"/>
<rect x="137" y="58" width="10.1156" height="79.239" rx="5.05781" fill="#607AE1"/>
<rect x="222" y="58" width="10.1156" height="79.239" rx="5.05781" fill="#607AE1"/>
</svg>
